<svg width="168" height="107" viewBox="0 0 168 107" fill="none" xmlns="http://www.w3.org/2000/svg">
<path d="M155.376 88.9559C150.184 86.2769 145.853 82.1619 142.914 77.1224C142.887 77.073 142.856 77.0237 142.829 76.9698C141.119 73.8779 138.651 71.2662 135.675 69.3814C132.4 67.2723 128.504 66.0652 124.327 66.0652C121.405 66.0652 118.623 66.653 116.101 67.73L116.083 67.6807C111.896 69.4398 107.296 70.418 102.472 70.418C101.718 70.418 100.965 70.4001 100.22 70.3418C88.1168 69.5789 77.6833 62.6861 71.9797 52.7373C69.2244 47.9132 67.573 42.3621 67.38 36.4565C67.4294 35.7026 67.4563 34.9398 67.4563 34.1769C67.4563 33.8 67.4473 33.432 67.4384 33.064C66.8954 15.98 53.913 2.04182 37.2464 0H0C0.0673127 2.44569 0.224382 4.86446 0.46222 7.26079C0.830196 11.1739 1.41806 15.0332 2.20338 18.8116C6.03123 37.3361 14.5754 54.1553 26.593 68.0082C29.7073 71.5938 33.0595 74.9863 36.6181 78.159C44.7405 85.3884 53.9623 91.4824 64.0233 96.1494C75.7492 101.602 88.6284 105.138 102.248 106.35C105.255 106.628 108.302 106.785 111.385 106.825C113.036 106.843 114.669 106.825 116.307 106.767C123.411 106.543 130.353 105.636 137.053 104.088C142.497 102.849 147.792 101.189 152.899 99.1471C157.808 97.195 162.556 94.884 167.088 92.2543C162.892 91.9446 158.939 90.7958 155.38 88.9559H155.376Z" fill="#6CC9FF"/>
</svg>
