<svg width="107" height="224" viewBox="0 0 107 224" fill="none" xmlns="http://www.w3.org/2000/svg">
<path d="M34.8673 155.38H19.3809V164.36H29.0784V174.443H19.3809V183.993H29.0784V193.69H19.3809V203.356H29.0784V213.09H19.3809V223.048H87.3802V155.376H34.8673V155.38ZM62.7302 203.715C54.9848 203.715 48.7113 197.442 48.7113 189.696C48.7113 181.951 54.9848 175.677 62.7302 175.677C70.4757 175.677 76.7492 181.951 76.7492 189.696C76.7492 197.442 70.4667 203.715 62.7302 203.715Z" fill="#D31A1A"/>
<path d="M58.0505 0H48.6133V48.4517H58.0505V0Z" fill="#2B85F0"/>
<path d="M90.8901 134.868L87.3808 132.526L77.5218 125.951L76.1665 122.173L74.0978 116.384L53.2847 58.1182L29.2047 125.951L0 145.337H19.2066L36.829 145.328L87.3808 145.315H88.9874H106.569L90.8901 134.868Z" fill="#6CC9FF"/>
</svg>
