<svg width="97" height="224" viewBox="0 0 97 224" fill="none" xmlns="http://www.w3.org/2000/svg">
<path d="M65.226 165.154H0V223.061H9.75586C10.6264 202.481 22.1593 184.662 38.9785 175.004C47.5228 170.082 57.4312 167.281 67.9903 167.281C74.5241 167.281 80.8201 168.354 86.6853 170.346C87.0353 170.463 87.3809 170.589 87.7309 170.714C89.7144 171.419 91.635 172.231 93.5018 173.16C94.2737 173.528 95.0276 173.914 95.7725 174.322C96.1495 174.515 96.5264 174.717 96.8944 174.933V165.159H65.226V165.154Z" fill="#153A61"/>
<path d="M79.4823 116.218H48.4512V154.985H96.8939V116.218H79.4823ZM67.3615 130.883V145.288H58.1487V130.883C58.1487 129.142 59.1045 127.634 60.5271 126.853C60.6931 126.754 60.8636 126.669 61.0476 126.611C61.272 126.512 61.5009 126.436 61.7432 126.386C62.0708 126.31 62.4028 126.27 62.7484 126.27C63.0939 126.27 63.426 126.31 63.7536 126.386C65.4184 126.754 66.7512 128.029 67.1865 129.662C67.2853 129.99 67.3391 130.318 67.3526 130.668C67.3615 130.668 67.3615 130.677 67.3615 130.677V130.878V130.883ZM77.988 145.315V130.883C77.988 128.339 80.0567 126.27 82.6011 126.27C85.1455 126.27 87.2143 128.339 87.2143 130.883V145.315H77.9924H77.988Z" fill="#D31A1A"/>
<path d="M72.6478 67.8242C60.6976 67.8242 50.7308 76.3101 48.4512 87.5827V107.054H96.8939V87.9014C94.7399 76.4672 84.7013 67.8242 72.6478 67.8242Z" fill="#6CC9FF"/>
<path d="M77.4864 0H67.8203V58.1312H77.4864V0Z" fill="#2B85F0"/>
</svg>
