<svg width="166" height="143" viewBox="0 0 166 143" fill="none" xmlns="http://www.w3.org/2000/svg">
<path d="M165.055 57.4806C165.082 56.7087 165.105 55.9324 165.105 55.1515C165.105 54.7836 165.096 54.4156 165.087 54.0611C165.069 53.3745 165.046 52.6969 165.019 52.0193C163.915 32.889 152.84 16.4333 136.918 7.78135C132.067 5.14269 126.768 3.22653 121.172 2.18543C116.617 0.762889 111.766 0 106.74 0C98.5592 0 90.8452 2.01939 84.0915 5.60491C74.8607 10.4873 67.3979 18.2597 62.9015 27.7239C62.7668 28.0021 62.6412 28.2758 62.5066 28.5541V28.563C60.2718 33.5038 58.8537 38.8798 58.387 44.5251C58.2883 45.6874 58.2345 46.8541 58.2345 48.0343C58.2255 48.2004 58.2255 48.3619 58.2255 48.528C58.2255 50.5563 58.3511 52.5667 58.5935 54.5323C58.5845 54.6489 58.5845 54.7746 58.5845 54.8913C58.5845 55.7619 58.6249 56.6324 58.7101 57.4806C58.7954 58.4588 58.9435 59.4147 59.1275 60.3616C59.8814 64.0144 61.3623 67.4069 63.4175 70.3777C63.9381 71.1405 64.499 71.8855 65.1093 72.59C68.6455 76.7365 73.4023 79.8014 78.8187 81.2419C81.0624 81.8433 83.4184 82.1619 85.8461 82.1619C90.6433 82.1619 95.1442 80.9233 99.0618 78.7379C100.085 78.177 101.081 77.5398 102.019 76.8532C102.746 76.3102 103.451 75.7403 104.115 75.1344C104.415 74.8742 104.703 74.6049 104.985 74.3132C107.934 71.0284 109.724 66.6844 109.724 61.9187C109.724 61.5014 109.715 61.0975 109.684 60.6891V60.6802C109.742 60.2449 109.769 59.8006 109.769 59.3474C109.769 58.7101 109.711 58.0909 109.594 57.4806C109.266 55.7214 108.472 54.1239 107.35 52.8225C106.412 51.732 105.255 50.8525 103.926 50.2422C102.652 49.6543 101.229 49.3223 99.7305 49.3223C94.8301 49.3223 90.751 52.8315 89.8804 57.4806H81.9824C82.1843 53.9803 83.3645 50.7403 85.2583 48.0343C86.5462 46.19 88.1572 44.5924 90.015 43.3359C92.9544 41.3345 96.504 40.1633 100.332 40.1633C100.861 40.1633 101.386 40.1812 101.898 40.2306C105.057 40.4998 107.988 41.5633 110.492 43.2282C112.408 44.4937 114.068 46.1182 115.383 48.0029C115.392 48.0119 115.392 48.0209 115.392 48.0299H115.401C116.985 50.9019 118.089 54.0925 118.574 57.4761C118.632 57.8126 118.672 58.1627 118.708 58.5217V58.5396C118.816 59.5269 118.874 60.5321 118.874 61.5462C118.874 65.3068 118.129 68.8923 116.779 72.1727C113.413 78.6122 108.136 83.8896 101.687 87.2417C101.252 87.4661 100.807 87.686 100.363 87.888C95.7905 90.033 90.6971 91.2312 85.3121 91.2312C84.7422 91.2312 84.1813 91.2222 83.6203 91.1908C82.642 91.1414 81.6682 91.0561 80.7124 90.9394C77.5218 90.5221 74.4658 89.683 71.5983 88.4758C70.0994 87.8565 68.6589 87.1206 67.2768 86.3083C61.6494 82.9741 57.0183 78.1411 53.9534 72.3567C53.2488 70.6245 52.6295 68.8564 52.109 67.0479C51.2384 64.1086 50.5922 61.0661 50.1928 57.9517C50.1749 57.7857 50.1524 57.6331 50.1345 57.4671H0C6.56523 61.9322 11.8111 68.1698 15.0825 75.4889C17.443 80.7663 18.7578 86.6045 18.7847 92.7524V92.9364C18.8835 107.534 30.744 119.336 45.3598 119.336C48.7838 119.336 52.0507 118.69 55.0573 117.501C55.8291 117.115 56.6234 116.756 57.4357 116.438C57.4447 116.438 57.4536 116.437 57.4536 116.429C60.8776 115.087 64.5978 114.342 68.5019 114.342C70.0591 114.342 71.5848 114.459 73.0747 114.692C74.1472 114.858 75.2017 115.069 76.2339 115.347C78.2532 115.877 80.1784 116.613 82.0048 117.532C82.642 117.851 83.2703 118.201 83.8806 118.556C84.3832 118.856 84.8768 119.175 85.3615 119.493C89.3733 122.208 92.6986 125.875 95.0186 130.156L95.0455 130.138C98.4785 137.242 105.748 142.155 114.167 142.155C119.09 142.155 123.622 140.473 127.216 137.65C127.872 137.098 128.522 136.528 129.16 135.94C129.169 135.94 129.169 135.931 129.178 135.922C134.271 131.309 138.942 126.225 143.107 120.737C148.792 113.283 153.558 105.084 157.242 96.3155C160.047 89.665 162.219 82.6959 163.7 75.471C164.346 71.3515 164.781 67.1556 164.997 62.9015C165.082 61.102 165.123 59.2845 165.131 57.4671H165.064L165.055 57.4806Z" fill="#2B85F0"/>
</svg>
