<svg width="338" height="438" viewBox="0 0 338 438" fill="none" xmlns="http://www.w3.org/2000/svg">
<path d="M11.3473 438C8.94028 438 7.12275 437.705 5.89469 437.116C4.66663 436.477 4.0526 436.158 4.0526 436.158L5.3789 429.968C5.3789 429.968 5.91925 430.238 6.99994 430.779C8.08064 431.27 9.52975 431.516 11.3473 431.516C13.0666 431.516 14.5894 431.196 15.9157 430.558C17.242 429.919 18.5191 428.568 19.7472 426.505L0 389.295H11.9367L24.9051 415.968H25.1261L33.8208 389.295H40.5997L27.8524 422.453C25.6419 428.053 23.2103 432.056 20.5577 434.463C17.9051 436.821 14.835 438 11.3473 438Z" fill="#2B85F0"/>
<path d="M304.309 437.189V400.348H313.961V416.116L316.982 414.274L327.445 400.348H334.15L323.393 413.684L337.171 437.189H324.793L315.877 420.684L313.961 421.863V437.189H304.309Z" fill="#2B85F0"/>
<path d="M284.024 438C280.095 438 276.828 437.214 274.225 435.642C271.621 434.021 269.656 431.786 268.33 428.937C267.053 426.088 266.414 422.797 266.414 419.063C266.414 415.183 267.102 411.793 268.477 408.895C269.853 405.948 271.867 403.663 274.519 402.042C277.172 400.372 280.414 399.537 284.245 399.537C286.407 399.537 288.421 399.807 290.288 400.348C292.154 400.839 293.652 401.355 294.782 401.895C295.912 402.435 296.477 402.706 296.477 402.706L295.224 407.495C295.224 407.495 294.684 407.274 293.603 406.832C292.572 406.341 291.295 405.874 289.772 405.432C288.298 404.941 286.849 404.695 285.424 404.695C283.41 404.695 281.789 405.113 280.561 405.948C279.333 406.783 278.449 408.207 277.909 410.221C277.368 412.235 277.098 415.035 277.098 418.621C277.098 422.256 277.393 425.105 277.982 427.168C278.621 429.232 279.579 430.705 280.856 431.589C282.182 432.425 283.853 432.842 285.867 432.842C287.34 432.842 288.642 432.596 289.772 432.105C290.951 431.614 291.958 431.049 292.793 430.411C293.628 429.772 294.242 429.207 294.635 428.716C295.077 428.225 295.298 427.979 295.298 427.979L298.319 431.221C298.319 431.221 298.073 431.565 297.582 432.253C297.091 432.94 296.28 433.726 295.151 434.611C294.021 435.495 292.547 436.281 290.73 436.968C288.912 437.656 286.677 438 284.024 438Z" fill="#2B85F0"/>
<path d="M232.93 437.189V400.348H245.456C248.845 400.348 251.572 400.839 253.635 401.821C255.747 402.804 257.27 404.056 258.203 405.579C259.136 407.053 259.603 408.576 259.603 410.148C259.603 412.112 259.038 413.734 257.908 415.011C256.779 416.288 255.501 417.295 254.077 418.032C256.14 418.719 257.835 419.776 259.161 421.2C260.536 422.625 261.224 424.393 261.224 426.505C261.224 429.502 259.947 432.032 257.393 434.095C254.838 436.158 251.007 437.189 245.898 437.189H232.93ZM242.656 416.411H246.561C247.396 416.411 248.182 416.018 248.919 415.232C249.705 414.397 250.098 412.849 250.098 410.59C250.098 408.33 249.705 406.807 248.919 406.021C248.133 405.186 247.003 404.769 245.53 404.769H242.656V416.411ZM242.656 432.768H245.898C247.765 432.768 249.14 432.302 250.024 431.368C250.908 430.435 251.351 428.716 251.351 426.211C251.351 424.049 250.958 422.576 250.172 421.79C249.386 420.955 248.354 420.537 247.077 420.537H242.656V432.768Z" fill="#2B85F0"/>
<path d="M207.602 438C203.721 438 200.455 437.189 197.802 435.568C195.199 433.947 193.234 431.712 191.907 428.863C190.581 425.965 189.918 422.6 189.918 418.769C189.918 414.937 190.581 411.572 191.907 408.674C193.234 405.776 195.199 403.541 197.802 401.969C200.455 400.348 203.721 399.537 207.602 399.537C211.532 399.537 214.823 400.348 217.476 401.969C220.128 403.541 222.142 405.776 223.518 408.674C224.893 411.572 225.581 414.937 225.581 418.769C225.581 422.6 224.893 425.965 223.518 428.863C222.142 431.712 220.128 433.947 217.476 435.568C214.823 437.189 211.532 438 207.602 438ZM207.602 433.063C210.353 433.063 212.22 431.958 213.202 429.747C214.234 427.488 214.749 423.828 214.749 418.769C214.749 413.709 214.209 410.049 213.128 407.79C212.097 405.53 210.255 404.4 207.602 404.4C204.999 404.4 203.181 405.53 202.149 407.79C201.118 410.049 200.602 413.709 200.602 418.769C200.602 423.828 201.093 427.488 202.076 429.747C203.058 431.958 204.9 433.063 207.602 433.063Z" fill="#2B85F0"/>
<path d="M151.693 437.189V400.348H161.42V416.042H172.767V400.348H182.493V437.189H172.767V420.905H161.42V437.189H151.693Z" fill="#2B85F0"/>
<path d="M112.625 437.189L120.657 422.084C118.79 421.249 117.218 420.046 115.941 418.474C114.664 416.853 114.025 414.741 114.025 412.137C114.025 408.109 115.253 405.137 117.709 403.221C120.214 401.306 123.407 400.348 127.288 400.348H141.951V437.189H132.151V423.337H128.835L122.72 437.189H112.625ZM128.099 418.621H132.151V404.842H128.025C126.944 404.842 125.962 405.407 125.078 406.537C124.242 407.667 123.825 409.46 123.825 411.916C123.825 414.225 124.242 415.919 125.078 417C125.913 418.081 126.92 418.621 128.099 418.621Z" fill="#2B85F0"/>
<path d="M80.7441 437.189V400.348H90.4704V414.053H92.3862C97.2984 414.053 101.105 414.962 103.807 416.779C106.509 418.597 107.86 421.372 107.86 425.105C107.86 428.839 106.607 431.786 104.102 433.947C101.597 436.109 97.7896 437.189 92.6809 437.189H80.7441ZM90.4704 432.768H92.4598C94.2774 432.768 95.6037 432.228 96.4388 431.147C97.323 430.018 97.7651 428.077 97.7651 425.326C97.7651 422.576 97.2984 420.733 96.3651 419.8C95.4809 418.867 94.1546 418.4 92.3862 418.4H90.4704V432.768Z" fill="#2B85F0"/>
<path d="M41.8399 437.853C40.4645 437.853 39.482 437.754 38.8926 437.558C38.3522 437.361 38.082 437.263 38.082 437.263L38.6715 431.147C38.6715 431.147 38.868 431.197 39.261 431.295C39.6539 431.393 40.1697 431.442 40.8083 431.442C42.3802 431.442 43.7802 430.484 45.0083 428.568C46.2364 426.604 47.1942 423.361 47.882 418.842C48.6188 414.323 48.9872 408.158 48.9872 400.348H71.0186V437.189H61.2924V405.284H54.5135C54.4644 416.288 53.2363 424.467 50.8293 429.821C48.4714 435.175 45.475 437.853 41.8399 437.853Z" fill="#2B85F0"/>
<path d="M229.027 29.0791H219.361V87.2103H229.027V29.0791Z" fill="#2B85F0"/>
<path d="M224.189 96.9033C212.239 96.9033 202.272 105.389 199.992 116.662V136.133H248.435V116.98C246.281 105.546 236.242 96.9033 224.189 96.9033Z" fill="#6CC9FF"/>
<path d="M202.333 25.3275L179.725 41.1505L188.309 67.8333L166.15 51.5526L143.537 67.8333L152.589 41.1505L129.074 25.3275H156.659L166.15 0L174.744 25.3275H202.333Z" fill="#F59C1C"/>
<path d="M231.023 145.297H199.992V184.064H248.435V145.297H231.023ZM218.903 159.962V174.367H209.69V159.962C209.69 158.221 210.646 156.713 212.068 155.932C212.234 155.834 212.405 155.748 212.589 155.69C212.813 155.591 213.042 155.515 213.284 155.466C213.612 155.389 213.944 155.349 214.289 155.349C214.635 155.349 214.967 155.389 215.295 155.466C216.959 155.834 218.292 157.108 218.728 158.741C218.826 159.069 218.88 159.397 218.894 159.747C218.903 159.747 218.903 159.756 218.903 159.756V159.958V159.962ZM229.529 174.394V159.962C229.529 157.418 231.598 155.349 234.142 155.349C236.687 155.349 238.755 157.418 238.755 159.962V174.394H229.533H229.529Z" fill="#D31A1A"/>
<path d="M183.472 146.889L183.203 145.382L170.916 77.5215H161.241L149.416 142.559L148.622 146.903L147.5 153.069L170.831 168.757L170.916 184.149H190.221L183.472 146.889Z" fill="#2B85F0"/>
<path d="M216.767 194.233H151.541V252.14H161.297C162.167 231.561 173.7 213.741 190.52 204.083C199.064 199.161 208.972 196.36 219.531 196.36C226.065 196.36 232.361 197.433 238.226 199.425C238.576 199.542 238.922 199.668 239.272 199.793C241.255 200.498 243.176 201.31 245.043 202.239C245.815 202.607 246.569 202.993 247.314 203.401C247.69 203.594 248.067 203.796 248.435 204.012V194.238H216.767V194.233Z" fill="#153A61"/>
<path d="M276.579 261.581C276.606 260.809 276.628 260.033 276.628 259.252C276.628 258.884 276.619 258.516 276.61 258.162C276.592 257.475 276.57 256.797 276.543 256.12C275.439 236.99 264.364 220.534 248.442 211.882C243.591 209.243 238.291 207.327 232.695 206.286C228.14 204.863 223.289 204.101 218.263 204.101C210.083 204.101 202.369 206.12 195.615 209.705C186.384 214.588 178.921 222.36 174.425 231.824C174.29 232.103 174.165 232.376 174.03 232.655V232.664C171.795 237.604 170.377 242.98 169.91 248.626C169.812 249.788 169.758 250.955 169.758 252.135C169.749 252.301 169.749 252.463 169.749 252.629C169.749 254.657 169.875 256.667 170.117 258.633C170.108 258.75 170.108 258.875 170.108 258.992C170.108 259.862 170.148 260.733 170.234 261.581C170.319 262.559 170.467 263.515 170.651 264.462C171.405 268.115 172.886 271.508 174.941 274.478C175.462 275.241 176.022 275.986 176.633 276.691C180.169 280.837 184.926 283.902 190.342 285.343C192.586 285.944 194.942 286.262 197.37 286.262C202.167 286.262 206.668 285.024 210.585 282.838C211.608 282.278 212.605 281.64 213.543 280.954C214.27 280.411 214.974 279.841 215.638 279.235C215.939 278.975 216.226 278.705 216.509 278.414C219.457 275.129 221.248 270.785 221.248 266.019C221.248 265.602 221.239 265.198 221.207 264.79V264.781C221.266 264.345 221.292 263.901 221.292 263.448C221.292 262.811 221.234 262.191 221.117 261.581C220.79 259.822 219.996 258.224 218.874 256.923C217.936 255.833 216.778 254.953 215.45 254.343C214.175 253.755 212.753 253.423 211.254 253.423C206.354 253.423 202.274 256.932 201.404 261.581H193.506C193.708 258.081 194.888 254.841 196.782 252.135C198.07 250.291 199.681 248.693 201.538 247.437C204.478 245.435 208.027 244.264 211.855 244.264C212.385 244.264 212.91 244.282 213.421 244.331C216.581 244.6 219.511 245.664 222.015 247.329C223.931 248.594 225.592 250.219 226.906 252.104C226.915 252.112 226.915 252.121 226.915 252.13H226.924C228.508 255.002 229.612 258.193 230.097 261.577C230.155 261.913 230.196 262.263 230.232 262.622V262.64C230.339 263.627 230.398 264.633 230.398 265.647C230.398 269.407 229.653 272.993 228.302 276.273C224.936 282.713 219.659 287.99 213.21 291.342C212.775 291.567 212.331 291.787 211.887 291.989C207.314 294.134 202.221 295.332 196.836 295.332C196.266 295.332 195.705 295.323 195.144 295.291C194.165 295.242 193.192 295.157 192.236 295.04C189.045 294.623 185.989 293.784 183.122 292.576C181.623 291.957 180.182 291.221 178.8 290.409C173.173 287.075 168.542 282.242 165.477 276.457C164.772 274.725 164.153 272.957 163.632 271.149C162.762 268.209 162.116 265.167 161.716 262.052C161.698 261.886 161.676 261.734 161.658 261.568H111.523C118.089 266.033 123.335 272.27 126.606 279.59C128.966 284.867 130.281 290.705 130.308 296.853V297.037C130.407 311.635 142.267 323.437 156.883 323.437C160.307 323.437 163.574 322.791 166.581 321.602C167.353 321.216 168.147 320.857 168.959 320.538C168.968 320.538 168.977 320.538 168.977 320.529C172.401 319.187 176.121 318.442 180.025 318.442C181.582 318.442 183.108 318.559 184.598 318.792C185.671 318.958 186.725 319.169 187.757 319.448C189.777 319.977 191.702 320.713 193.528 321.633C194.165 321.952 194.794 322.302 195.404 322.656C195.907 322.957 196.4 323.275 196.885 323.594C200.897 326.309 204.222 329.975 206.542 334.256L206.569 334.238C210.002 341.342 217.272 346.256 225.69 346.256C230.613 346.256 235.145 344.573 238.74 341.751C239.395 341.199 240.046 340.629 240.683 340.041C240.692 340.041 240.692 340.032 240.701 340.023C245.794 335.41 250.466 330.325 254.63 324.837C260.316 317.383 265.082 309.185 268.766 300.416C271.571 293.766 273.743 286.796 275.223 279.572C275.87 275.452 276.305 271.256 276.52 267.002C276.606 265.203 276.646 263.385 276.655 261.568H276.588L276.579 261.581Z" fill="#2B85F0"/>
<path d="M248.432 204.007C248.064 203.796 247.687 203.589 247.311 203.396C247.687 203.598 248.064 203.8 248.432 204.016V204.007Z" fill="white"/>
<path d="M142.016 183.239V184.15H141.85L142.016 183.239Z" fill="white"/>
<path d="M145.529 163.956L142.02 161.613L132.16 155.039L130.805 151.261L128.736 145.472L107.923 87.2061L83.8434 155.039L54.6387 174.425H73.8452L91.4677 174.416L142.02 174.403H143.626H161.208L145.529 163.956Z" fill="#6CC9FF"/>
<path d="M112.689 29.0879H103.252V77.5396H112.689V29.0879Z" fill="#2B85F0"/>
<path d="M89.5059 184.468H74.0195V193.448H83.7171V203.531H74.0195V213.081H83.7171V222.778H74.0195V232.444H83.7171V242.178H74.0195V252.136H142.019V184.464H89.5059V184.468ZM117.369 232.803C109.623 232.803 103.35 226.53 103.35 218.784C103.35 211.039 109.623 204.765 117.369 204.765C125.114 204.765 131.388 211.039 131.388 218.784C131.388 226.53 125.105 232.803 117.369 232.803Z" fill="#D31A1A"/>
<path d="M210.071 350.542C204.879 347.863 200.548 343.748 197.609 338.708C197.582 338.659 197.551 338.61 197.524 338.556C195.814 335.464 193.346 332.852 190.371 330.967C187.095 328.858 183.2 327.651 179.022 327.651C176.101 327.651 173.318 328.239 170.796 329.316L170.778 329.267C166.591 331.026 161.992 332.004 157.168 332.004C156.414 332.004 155.66 331.986 154.915 331.928C142.812 331.165 132.379 324.272 126.675 314.323C123.92 309.499 122.268 303.948 122.075 298.042C122.125 297.289 122.152 296.526 122.152 295.763C122.152 295.386 122.143 295.018 122.134 294.65C121.591 277.566 108.608 263.628 91.9417 261.586H54.6953C54.7626 264.032 54.9197 266.45 55.1575 268.847C55.5255 272.76 56.1134 276.619 56.8987 280.398C60.7265 298.922 69.2708 315.741 81.2883 329.594C84.4026 333.18 87.7548 336.572 91.3134 339.745C99.4358 346.974 108.658 353.068 118.719 357.735C130.445 363.188 143.324 366.724 156.943 367.935C159.95 368.214 162.997 368.371 166.08 368.411C167.731 368.429 169.365 368.411 171.003 368.353C178.106 368.128 185.049 367.222 191.748 365.674C197.192 364.435 202.487 362.775 207.594 360.733C212.503 358.781 217.251 356.47 221.783 353.84C217.588 353.531 213.634 352.382 210.075 350.542H210.071Z" fill="#6CC9FF"/>
</svg>
