<svg width="345" height="492" viewBox="0 0 345 492" fill="none" xmlns="http://www.w3.org/2000/svg">
<rect width="345" height="492" fill="white"/>
<path d="M235.389 99.0791H225.723V157.21H235.389V99.0791Z" fill="#6CC9FF"/>
<path d="M230.55 166.903C218.6 166.903 208.633 175.389 206.354 186.662V206.133H254.796V186.98C252.642 175.546 242.604 166.903 230.55 166.903Z" fill="#6CC9FF"/>
<path d="M208.694 95.3275L186.086 111.15L194.671 137.833L172.511 121.553L149.899 137.833L158.95 111.15L135.436 95.3275H163.02L172.511 70L181.105 95.3275H208.694Z" fill="#6CC9FF"/>
<path d="M237.385 215.297H206.354V254.064H254.796V215.297H237.385ZM225.264 229.962V244.367H216.051V229.962C216.051 228.221 217.007 226.713 218.429 225.932C218.595 225.834 218.766 225.748 218.95 225.69C219.174 225.591 219.403 225.515 219.646 225.466C219.973 225.389 220.305 225.349 220.651 225.349C220.996 225.349 221.328 225.389 221.656 225.466C223.321 225.834 224.654 227.108 225.089 228.741C225.188 229.069 225.241 229.397 225.255 229.747C225.264 229.747 225.264 229.756 225.264 229.756V229.958V229.962ZM235.89 244.394V229.962C235.89 227.418 237.959 225.349 240.503 225.349C243.048 225.349 245.117 227.418 245.117 229.962V244.394H235.895H235.89Z" fill="#6CC9FF"/>
<path d="M189.833 216.889L189.564 215.382L177.277 147.521H167.602L155.777 212.559L154.983 216.903L153.861 223.069L177.192 238.757L177.277 254.149H196.582L189.833 216.889Z" fill="#6CC9FF"/>
<path d="M223.128 264.233H157.902V322.14H167.658C168.529 301.561 180.062 283.741 196.881 274.083C205.425 269.161 215.334 266.36 225.893 266.36C232.426 266.36 238.722 267.433 244.588 269.425C244.938 269.542 245.283 269.668 245.633 269.793C247.617 270.498 249.537 271.31 251.404 272.239C252.176 272.607 252.93 272.993 253.675 273.401C254.052 273.594 254.429 273.796 254.797 274.012V264.238H223.128V264.233Z" fill="#6CC9FF"/>
<path d="M282.94 331.581C282.967 330.809 282.989 330.033 282.989 329.252C282.989 328.884 282.98 328.516 282.971 328.162C282.953 327.475 282.931 326.797 282.904 326.12C281.8 306.99 270.725 290.534 254.803 281.882C249.952 279.243 244.653 277.327 239.057 276.286C234.502 274.863 229.651 274.101 224.625 274.101C216.444 274.101 208.73 276.12 201.976 279.705C192.745 284.588 185.283 292.36 180.786 301.824C180.652 302.103 180.526 302.376 180.391 302.655V302.664C178.157 307.604 176.739 312.98 176.272 318.626C176.173 319.788 176.119 320.955 176.119 322.135C176.11 322.301 176.11 322.463 176.11 322.629C176.11 324.657 176.236 326.667 176.478 328.633C176.469 328.75 176.469 328.875 176.469 328.992C176.469 329.862 176.51 330.733 176.595 331.581C176.68 332.559 176.828 333.515 177.012 334.462C177.766 338.115 179.247 341.508 181.302 344.478C181.823 345.241 182.384 345.986 182.994 346.691C186.53 350.837 191.287 353.902 196.703 355.343C198.947 355.944 201.303 356.262 203.731 356.262C208.528 356.262 213.029 355.024 216.947 352.838C217.97 352.278 218.966 351.64 219.904 350.954C220.631 350.411 221.335 349.841 222 349.235C222.3 348.975 222.587 348.705 222.87 348.414C225.818 345.129 227.609 340.785 227.609 336.019C227.609 335.602 227.6 335.198 227.569 334.79V334.781C227.627 334.345 227.654 333.901 227.654 333.448C227.654 332.811 227.595 332.191 227.479 331.581C227.151 329.822 226.357 328.224 225.235 326.923C224.297 325.833 223.139 324.953 221.811 324.343C220.537 323.755 219.114 323.423 217.615 323.423C212.715 323.423 208.636 326.932 207.765 331.581H199.867C200.069 328.081 201.249 324.841 203.143 322.135C204.431 320.291 206.042 318.693 207.9 317.437C210.839 315.435 214.389 314.264 218.217 314.264C218.746 314.264 219.271 314.282 219.783 314.331C222.942 314.6 225.872 315.664 228.376 317.329C230.292 318.594 231.953 320.219 233.268 322.104C233.277 322.112 233.277 322.121 233.277 322.13H233.286C234.87 325.002 235.974 328.193 236.458 331.577C236.517 331.913 236.557 332.263 236.593 332.622V332.64C236.701 333.627 236.759 334.633 236.759 335.647C236.759 339.407 236.014 342.993 234.663 346.273C231.298 352.713 226.02 357.99 219.572 361.342C219.137 361.567 218.692 361.787 218.248 361.989C213.675 364.134 208.582 365.332 203.197 365.332C202.627 365.332 202.066 365.323 201.505 365.291C200.527 365.242 199.553 365.157 198.597 365.04C195.407 364.623 192.351 363.784 189.483 362.576C187.984 361.957 186.544 361.221 185.162 360.409C179.534 357.075 174.903 352.242 171.838 346.457C171.134 344.725 170.514 342.957 169.994 341.149C169.123 338.209 168.477 335.167 168.078 332.052C168.06 331.886 168.037 331.734 168.019 331.568H117.885C124.45 336.033 129.696 342.27 132.967 349.59C135.328 354.867 136.643 360.705 136.67 366.853V367.037C136.768 381.635 148.629 393.437 163.245 393.437C166.669 393.437 169.935 392.791 172.942 391.602C173.714 391.216 174.508 390.857 175.32 390.538C175.329 390.538 175.338 390.538 175.338 390.529C178.762 389.187 182.483 388.442 186.387 388.442C187.944 388.442 189.47 388.559 190.959 388.792C192.032 388.958 193.087 389.169 194.119 389.448C196.138 389.977 198.063 390.713 199.89 391.633C200.527 391.952 201.155 392.302 201.765 392.656C202.268 392.957 202.762 393.275 203.246 393.594C207.258 396.309 210.583 399.975 212.903 404.256L212.93 404.238C216.363 411.342 223.633 416.256 232.052 416.256C236.974 416.256 241.507 414.573 245.101 411.751C245.756 411.199 246.407 410.629 247.044 410.041C247.053 410.041 247.053 410.032 247.062 410.023C252.156 405.41 256.827 400.325 260.992 394.837C266.677 387.383 271.443 379.185 275.127 370.416C277.932 363.766 280.104 356.796 281.585 349.572C282.231 345.452 282.666 341.256 282.882 337.002C282.967 335.203 283.007 333.385 283.016 331.568H282.949L282.94 331.581Z" fill="#6CC9FF"/>
<path d="M254.794 274.007C254.426 273.796 254.049 273.589 253.672 273.396C254.049 273.598 254.426 273.8 254.794 274.016V274.007Z" fill="#6CC9FF"/>
<path d="M148.377 253.239V254.15H148.211L148.377 253.239Z" fill="#6CC9FF"/>
<path d="M151.89 233.956L148.381 231.613L138.522 225.039L137.167 221.261L135.098 215.472L114.285 157.206L90.2047 225.039L61 244.425H80.2066L97.829 244.416L148.381 244.403H149.987H167.569L151.89 233.956Z" fill="#6CC9FF"/>
<path d="M119.051 99.0879H109.613V147.54H119.051V99.0879Z" fill="#6CC9FF"/>
<path d="M95.8673 254.468H80.3809V263.448H90.0784V273.531H80.3809V283.081H90.0784V292.778H80.3809V302.444H90.0784V312.178H80.3809V322.136H148.38V254.464H95.8673V254.468ZM123.73 302.803C115.985 302.803 109.711 296.53 109.711 288.784C109.711 281.039 115.985 274.765 123.73 274.765C131.476 274.765 137.749 281.039 137.749 288.784C137.749 296.53 131.467 302.803 123.73 302.803Z" fill="#6CC9FF"/>
<path d="M216.432 420.542C211.24 417.863 206.91 413.748 203.97 408.708C203.944 408.659 203.912 408.61 203.885 408.556C202.175 405.464 199.707 402.852 196.732 400.967C193.456 398.858 189.561 397.651 185.383 397.651C182.462 397.651 179.68 398.239 177.158 399.316L177.14 399.267C172.953 401.026 168.353 402.004 163.529 402.004C162.775 402.004 162.021 401.986 161.276 401.928C149.173 401.165 138.74 394.272 133.036 384.323C130.281 379.499 128.63 373.948 128.437 368.042C128.486 367.289 128.513 366.526 128.513 365.763C128.513 365.386 128.504 365.018 128.495 364.65C127.952 347.566 114.97 333.628 98.303 331.586H61.0566C61.124 334.032 61.281 336.45 61.5189 338.847C61.8868 342.76 62.4747 346.619 63.26 350.398C67.0879 368.922 75.6321 385.741 87.6496 399.594C90.764 403.18 94.1162 406.572 97.6748 409.745C105.797 416.974 115.019 423.068 125.08 427.735C136.806 433.188 149.685 436.724 163.305 437.935C166.311 438.214 169.358 438.371 172.441 438.411C174.093 438.429 175.726 438.411 177.364 438.353C184.468 438.128 191.41 437.222 198.11 435.674C203.553 434.435 208.848 432.775 213.955 430.733C218.865 428.781 223.612 426.47 228.145 423.84C223.949 423.531 219.995 422.382 216.437 420.542H216.432Z" fill="#6CC9FF"/>
<path d="M217.295 368.199C217.453 368.199 217.582 368.143 217.582 368.074C217.582 368.004 217.453 367.948 217.295 367.948C217.137 367.948 217.009 368.004 217.009 368.074C217.009 368.143 217.137 368.199 217.295 368.199Z" fill="#2B85F0"/>
<path d="M168.731 321.735H169.443C168.766 324.203 168.283 326.751 168.023 329.367C167.974 328.924 167.938 328.471 167.916 328.014C168.001 325.865 168.274 323.769 168.726 321.735H168.731Z" fill="white"/>
<path d="M167.859 321.735H168.736C168.284 323.773 168.011 325.865 167.926 328.014C167.841 326.769 167.8 325.506 167.8 324.243C167.8 323.406 167.818 322.564 167.859 321.735Z" fill="white"/>
<path d="M167.917 330.64C167.926 330.815 167.926 330.99 167.944 331.16H167.885L167.912 330.64H167.917Z" fill="white"/>
<path d="M247.081 409.477C246.445 410.064 245.796 410.637 245.142 411.183C239.902 415.729 234.241 419.76 228.217 423.235C223.694 425.86 218.955 428.166 214.056 430.114C208.963 432.152 203.674 433.809 198.242 435.045C191.555 436.591 184.626 437.495 177.537 437.719C175.907 437.777 174.276 437.795 172.624 437.777C169.547 437.737 166.506 437.585 163.505 437.303C149.913 436.098 137.059 432.564 125.356 427.123C115.311 422.46 106.107 416.383 98.0051 409.168C94.4535 406.001 91.108 402.616 87.9998 399.037C76.006 385.212 67.4787 368.426 63.6584 349.938C62.8791 346.167 62.2879 342.315 61.9207 338.41C61.6788 336.018 61.5266 333.604 61.4594 331.163C61.4101 329.641 61.3922 328.104 61.4101 326.559C61.6699 303.499 68.7506 282.073 80.7534 264.311C81.3804 263.384 82.0163 262.47 82.6747 261.57C84.4975 259.021 86.4278 256.572 88.4522 254.198C91.4797 250.646 94.7222 247.301 98.1663 244.166C109.399 233.928 122.709 225.987 137.426 221.06C140.996 219.856 144.641 218.844 148.367 218.01C150.625 217.5 152.9 217.066 155.206 216.707C160.881 215.811 166.69 215.346 172.619 215.346C178.549 215.346 184.322 215.807 189.987 216.698C195.639 217.576 201.139 218.888 206.478 220.595C208.032 221.087 209.577 221.616 211.091 222.176C213.639 223.112 216.129 224.142 218.579 225.252C218.731 225.32 218.897 225.396 219.054 225.476C221.136 226.421 223.174 227.443 225.181 228.526L225.355 228.611C229.023 230.591 232.561 232.759 235.961 235.132C239.154 237.34 242.231 239.714 245.164 242.253C248.568 245.187 251.802 248.322 254.834 251.641C267.105 265.099 276.116 281.589 280.613 299.853C281.625 303.924 282.409 308.094 282.937 312.34" stroke="#153A61" stroke-width="0.716121"/>
<path d="M282.939 312.393C283.539 317.032 283.835 321.762 283.835 326.554C283.835 328.099 283.808 329.631 283.727 331.158C283.736 331.225 283.736 331.292 283.718 331.351C283.476 337.41 282.733 343.344 281.546 349.122C280.068 356.328 277.9 363.283 275.101 369.925C271.424 378.676 266.668 386.859 260.993 394.298C256.837 399.78 252.175 404.854 247.092 409.454" stroke="#153A61" stroke-width="0.716121"/>
<path d="M281.102 342.91C277.331 356.878 268.055 368.595 255.757 375.599C253.016 377.162 250.114 378.492 247.091 379.554C241.497 381.533 235.464 382.613 229.185 382.613C227.564 382.613 225.952 382.546 224.371 382.402C221.97 382.192 219.614 381.816 217.317 381.292C216.824 381.184 216.34 381.068 215.861 380.956C214.576 380.629 213.322 380.252 212.081 379.836C209.488 378.967 206.976 377.906 204.566 376.661C202.349 375.514 200.213 374.22 198.189 372.791C195.206 370.677 192.438 368.268 189.957 365.612C188.277 363.825 186.723 361.935 185.317 359.937C181.891 355.123 179.248 349.722 177.551 343.913C176.566 340.545 175.912 337.034 175.603 333.415C175.536 332.671 175.486 331.919 175.459 331.158C175.433 330.387 175.41 329.613 175.41 328.833C175.41 326.433 175.562 324.059 175.885 321.73C176.028 320.552 176.221 319.388 176.454 318.228C177.793 311.55 180.359 305.329 183.92 299.789C184.52 298.862 185.147 297.957 185.801 297.071C190.53 290.617 196.666 285.252 203.755 281.44C211.329 277.36 219.995 275.054 229.19 275.054C232.584 275.054 235.894 275.372 239.119 275.972C244.704 277.015 249.993 278.923 254.834 281.557C270.725 290.192 281.782 306.615 282.88 325.707C282.92 326.383 282.938 327.06 282.947 327.745" stroke="#153A61" stroke-width="0.716121"/>
<path d="M282.964 328.833C282.964 329.612 282.946 330.387 282.915 331.157C282.74 335.202 282.122 339.138 281.101 342.9" stroke="#153A61" stroke-width="0.716121"/>
<path d="M223.95 214.955C218.757 213.438 214.281 210.175 211.171 205.841C209.162 203.043 207.723 199.794 207.023 196.264C206.712 194.688 206.542 193.041 206.542 191.368C206.542 189.694 206.712 188.051 207.023 186.471C209.246 175.26 218.963 166.82 230.614 166.82C242.264 166.82 252.148 175.416 254.252 186.788C254.537 188.27 254.677 189.797 254.677 191.363C254.677 192.93 254.537 194.461 254.252 195.938C253.583 199.593 252.113 202.945 250.048 205.833C246.937 210.171 242.47 213.429 237.277 214.946" stroke="#153A61" stroke-width="0.716121"/>
<path d="M237.434 215.104C235.271 215.739 232.996 216.066 230.631 216.066C228.266 216.066 225.991 215.739 223.828 215.104" stroke="#153A61" stroke-width="0.716121"/>
<path d="M180.553 302.293C180.687 302.016 180.813 301.743 180.947 301.465C185.435 292.019 192.883 284.262 202.095 279.39C208.84 275.811 216.539 273.796 224.699 273.796C229.715 273.796 234.561 274.557 239.102 275.977C244.88 277.773 250.187 280.626 254.818 284.312C265.979 293.171 273.131 306.871 273.131 322.228C273.131 325.278 272.853 328.27 272.311 331.163C270.054 343.242 263.318 353.749 253.882 360.879C251.217 362.885 248.355 364.632 245.305 366.06C239.053 369.003 232.066 370.651 224.699 370.651C221.949 370.651 219.257 370.418 216.633 369.975C214.895 369.697 213.198 369.307 211.527 368.837C208.052 367.852 204.733 366.504 201.621 364.815C200.586 364.255 199.583 363.655 198.602 363.019C194.764 360.561 191.288 357.578 188.297 354.161C188.229 354.076 188.153 353.995 188.086 353.919C187.419 353.157 186.783 352.365 186.174 351.563C185.847 351.138 185.529 350.694 185.211 350.26C183.813 348.28 182.546 346.207 181.458 344.025C179.904 340.958 178.667 337.697 177.79 334.289C177.53 333.254 177.297 332.215 177.095 331.154C176.921 330.191 176.769 329.206 176.643 328.211C176.401 326.254 176.276 324.248 176.276 322.219C176.276 322.053 176.276 321.892 176.285 321.726C176.285 320.548 176.343 319.384 176.437 318.224C176.898 312.59 178.318 307.224 180.549 302.293" stroke="#153A61" stroke-width="0.716121"/>
<path d="M253.708 273.088C254.084 273.289 254.461 273.491 254.828 273.706C265.344 279.725 273.817 288.942 278.892 300.027C280.678 303.914 282.044 308.043 282.936 312.338C282.945 312.356 282.945 312.379 282.945 312.397C283.746 316.226 284.158 320.18 284.158 324.243C284.158 326.585 284.024 328.891 283.755 331.162C283.746 331.229 283.737 331.287 283.728 331.355C283.518 333.119 283.218 334.866 282.851 336.586C282.389 338.735 281.798 340.849 281.104 342.905V342.914C276.54 356.381 267.18 367.632 255.074 374.636C252.275 376.257 249.341 377.646 246.274 378.783C239.963 381.139 233.124 382.42 225.985 382.42C225.443 382.42 224.915 382.411 224.373 382.402C221.332 382.317 218.354 381.999 215.447 381.466C215.237 381.426 215.031 381.39 214.838 381.35C213.759 381.148 212.688 380.906 211.636 380.638C208.926 379.952 206.302 379.075 203.762 378.022C201.671 377.162 199.642 376.181 197.694 375.089C194.895 373.534 192.243 371.752 189.753 369.763C181.956 363.561 175.802 355.396 172.018 346.018C171.315 344.289 170.697 342.524 170.177 340.719C169.308 337.786 168.663 334.749 168.265 331.641C168.247 331.476 168.224 331.323 168.206 331.158C168.139 330.571 168.081 329.971 168.032 329.362C167.982 328.918 167.947 328.466 167.924 328.009C167.839 326.764 167.799 325.501 167.799 324.238C167.799 323.401 167.817 322.559 167.857 321.73C168.726 301.191 180.236 283.406 197.022 273.768C205.549 268.855 215.438 266.061 225.976 266.061C232.497 266.061 238.781 267.131 244.634 269.119" stroke="#153A61" stroke-width="0.716121"/>
<path d="M245.682 269.486C247.661 270.189 249.578 271 251.441 271.927" stroke="#153A61" stroke-width="0.716121"/>
<path d="M60.8057 331.123L107.359 331.123L107.471 331.123L119.016 331.123L124.266 331.123L136.475 331.123L141.597 331.123L153.463 331.123L177.737 331.123L183.662 331.123L183.697 331.123L183.855 331.123L188.257 331.123L189.054 331.123L189.258 331.123L191.744 331.123L197.737 331.123L203.164 331.123L207.952 331.123L216.924 331.123L219.649 331.123L219.902 331.123L221.959 331.123L225.346 331.123L225.411 331.123L226.671 331.123L240.876 331.123L247.092 331.123L253.529 331.123L253.57 331.123L254.027 331.123L254.037 331.123L256.804 331.123L282.911 331.123" stroke="#153A61" stroke-width="0.716121"/>
<path d="M80.7583 264.812V264.31V262.872V254.197H88.4571H96.2141H148.623V321.735H94.1405H80.7583V312.088" stroke="#153A61" stroke-width="0.716121"/>
<path d="M80.7583 284.106V273.496" stroke="#153A61" stroke-width="0.716121"/>
<path d="M80.7583 303.403V292.789" stroke="#153A61" stroke-width="0.716121"/>
<path d="M90.3874 263.09H80.9697V273.554H90.3874V263.09Z" stroke="#153A61" stroke-width="0.716121"/>
<path d="M90.4366 283.059H80.7583V292.789H90.4366V283.059Z" stroke="#153A61" stroke-width="0.716121"/>
<path d="M90.4366 302.357H80.7583V312.088H90.4366V302.357Z" stroke="#153A61" stroke-width="0.716121"/>
<path d="M119.351 99.124H109.932V147.48H119.351V99.124Z" stroke="#153A61" stroke-width="0.716121"/>
<path d="M235.452 99.1162H225.805V157.133H235.452V99.1162Z" stroke="#153A61" stroke-width="0.716121"/>
<path d="M124.019 302.441C131.746 302.441 138.01 296.176 138.01 288.449C138.01 280.722 131.746 274.458 124.019 274.458C116.292 274.458 110.028 280.722 110.028 288.449C110.028 296.176 116.292 302.441 124.019 302.441Z" stroke="#153A61" stroke-width="0.716121"/>
<path d="M233.34 321.736H230.196H221.552H221.476H203.266H196.727H184.366H177.51H176.291H175.879H169.452H168.736H167.858H158.731H158.126V263.943H185.661H223.219H254.829V273.698V273.707V281.558V284.308V308.855V321.736H237.904H233.349" stroke="#153A61" stroke-width="0.716121"/>
<path d="M206.484 220.294V215.104H223.812H223.83H237.436H237.454H254.831V251.64V253.794H254.181H206.484V220.594V220.294Z" stroke="#153A61" stroke-width="0.716121"/>
<path d="M216.16 229.74V225.252H217.633H218.578H219.747H221.753H225.354V228.611V229.538V229.74V244.116H216.16V229.74Z" stroke="#153A61" stroke-width="0.716121"/>
<path d="M206.484 186.525V166.806H230.633H254.831V186.843V196.029V205.958H250.527H210.73H206.484V196.347V186.525Z" stroke="#153A61" stroke-width="0.716121"/>
<path d="M148.62 252.97L148.455 253.879H148.62H167.981H177.458H196.725L189.99 216.693L189.721 215.188L177.458 147.462H167.798L156.001 212.371L155.208 216.706L154.089 222.86L152.123 233.725L150.219 244.151L149.48 248.227L148.62 252.97Z" stroke="#153A61" stroke-width="0.716121"/>
<path d="M152.122 233.725L167.77 244.151H150.218H148.619L98.1674 244.165L80.5798 244.174H61.4067L90.5537 224.826L114.591 157.127L135.363 215.278L137.427 221.055L138.775 224.826L148.619 231.387L152.122 233.725Z" stroke="#153A61" stroke-width="0.716121"/>
<path d="M172.701 70.0938L163.224 95.3712H135.698L159.162 111.163L150.133 137.793L172.701 121.544L194.812 137.793L186.244 111.163L208.812 95.3712H181.277L172.701 70.0938Z" stroke="#153A61" stroke-width="0.716121"/>
<path d="M204.102 408.132C205.723 411.123 206.65 414.55 206.65 418.195C206.65 425.083 203.349 431.201 198.248 435.039C194.719 437.713 190.316 439.294 185.551 439.294C182.716 439.294 180.011 438.734 177.543 437.713C170.83 434.963 165.849 428.854 164.703 421.465C164.537 420.403 164.452 419.301 164.452 418.195C164.452 409.453 169.768 401.956 177.342 398.753C179.859 397.683 182.64 397.092 185.551 397.092C189.721 397.092 193.608 398.297 196.878 400.401C199.851 402.283 202.31 404.889 204.016 407.975" stroke="#153A61" stroke-width="0.716121"/>
<path d="M136.917 366.373C136.917 353.291 146.389 342.426 158.835 340.254C160.331 339.985 161.863 339.851 163.439 339.851C165.015 339.851 166.641 339.994 168.186 340.285C168.697 340.37 169.207 340.478 169.7 340.603C169.866 340.63 170.018 340.67 170.175 340.719C172.817 341.405 175.298 342.493 177.547 343.913C180.346 345.668 182.796 347.935 184.762 350.581C187.221 353.909 188.94 357.837 189.626 362.1C189.818 363.247 189.926 364.416 189.953 365.612C189.97 365.871 189.97 366.122 189.97 366.382C189.97 367.529 189.894 368.648 189.747 369.759C189.594 371.053 189.33 372.316 188.976 373.539C188.04 376.943 186.419 380.082 184.287 382.783C181.931 385.775 178.931 388.251 175.509 389.998" stroke="#153A61" stroke-width="0.716121"/>
<path d="M175.488 390.011C174.718 390.405 173.925 390.764 173.114 391.073C170.114 392.26 166.853 392.904 163.436 392.904C148.849 392.904 137.012 381.126 136.914 366.557" stroke="#153A61" stroke-width="0.716121"/>
<path d="M54.311 382.227C52.3986 377.372 51.3506 372.088 51.3506 366.557C51.3506 355.781 55.3455 345.928 61.9247 338.404C64.3252 335.654 67.0751 333.213 70.1071 331.157C76.9594 326.495 85.236 323.768 94.1395 323.768C103.043 323.768 111.324 326.5 118.172 331.157C124.724 335.614 129.96 341.839 133.225 349.144C135.58 354.41 136.893 360.237 136.919 366.373V366.557C136.919 372.692 135.625 378.519 133.301 383.786C127.165 397.71 113.832 407.742 98.0091 409.162C96.7371 409.278 95.4428 409.336 94.1395 409.336C84.4253 409.336 75.4591 406.103 68.2843 400.643C64.8671 398.05 61.8485 394.951 59.3494 391.458C57.4684 388.833 55.8651 385.976 54.611 382.948C54.5125 382.738 54.4274 382.514 54.3423 382.294" stroke="#153A61" stroke-width="0.716121"/>
<path d="M90.1996 331.159C91.579 330.984 92.9898 330.899 94.414 330.899C95.8382 330.899 97.249 330.984 98.6284 331.159C115.262 333.197 128.219 347.108 128.761 364.158C128.77 364.525 128.779 364.892 128.779 365.268C128.779 366.03 128.752 366.791 128.702 367.544C127.534 385.458 112.629 399.633 94.414 399.633C92.2239 399.633 90.0742 399.432 87.9961 399.033C72.088 396.023 60.0449 382.054 60.0449 365.264C60.0449 359.755 61.3392 354.547 63.6547 349.934C68.6797 339.852 78.5328 332.588 90.1951 331.159H90.1996Z" stroke="#153A61" stroke-width="0.716121"/>
<path d="M175.511 390.003C178.928 388.663 182.641 387.92 186.537 387.92C188.091 387.92 189.614 388.036 191.101 388.269C192.171 388.435 193.224 388.645 194.254 388.923C196.269 389.452 198.191 390.186 200.014 391.104C200.649 391.422 201.276 391.772 201.886 392.125C202.387 392.425 202.88 392.743 203.364 393.061C207.367 395.771 210.686 399.43 213.002 403.703C215.299 407.948 216.602 412.821 216.602 417.981C216.602 418.634 216.584 419.293 216.535 419.938C216.302 423.539 215.447 426.96 214.054 430.109C211.963 434.865 208.671 438.967 204.559 442.044C199.543 445.806 193.3 448.046 186.537 448.046C185.225 448.046 183.931 447.961 182.668 447.795C174.996 446.81 168.233 442.94 163.508 437.297C160.342 433.544 158.093 428.998 157.072 424C156.687 422.052 156.472 420.045 156.472 417.981C156.472 411.836 158.313 406.112 161.479 401.356C164.381 396.994 168.399 393.433 173.115 391.073C173.885 390.688 174.678 390.329 175.488 390.011C175.497 390.011 175.506 390.011 175.506 390.003H175.511Z" stroke="#153A61" stroke-width="0.716121"/>
<path d="M158.135 331.798C159.958 331.507 161.83 331.354 163.729 331.354C165.126 331.354 166.505 331.431 167.858 331.596C167.898 331.596 167.925 331.605 167.965 331.605C168.064 331.623 168.158 331.632 168.266 331.646C170.805 331.973 173.255 332.573 175.597 333.419C176.126 333.612 176.659 333.813 177.178 334.037C177.38 334.113 177.595 334.203 177.796 334.297C178.867 334.758 179.901 335.282 180.913 335.851C188.294 340.007 194.013 346.761 196.835 354.876C197.538 356.883 198.062 358.979 198.38 361.137C198.478 361.755 198.555 362.383 198.613 363.018C198.662 363.529 198.698 364.04 198.729 364.564C198.756 365.173 198.779 365.777 198.779 366.395C198.779 368.576 198.577 370.717 198.192 372.791C198.057 373.561 197.883 374.336 197.699 375.088C197.457 375.993 197.198 376.884 196.898 377.762C195.67 381.323 193.897 384.623 191.666 387.557C191.483 387.799 191.299 388.041 191.107 388.269C187.479 392.815 182.75 396.42 177.321 398.709C173.143 400.464 168.552 401.441 163.738 401.441C162.985 401.441 162.233 401.423 161.489 401.365C149.41 400.603 138.998 393.724 133.305 383.795C130.555 378.98 128.907 373.44 128.715 367.546C128.706 367.161 128.697 366.785 128.697 366.4C128.697 365.647 128.715 364.904 128.773 364.161C129.109 358.728 130.694 353.627 133.229 349.148C138.371 340.07 147.449 333.518 158.139 331.802L158.135 331.798Z" stroke="#153A61" stroke-width="0.716121"/>
<path d="M223.219 265.515C230.725 265.515 237.931 266.787 244.635 269.124C244.985 269.241 245.33 269.366 245.679 269.492C247.645 270.217 249.566 271.037 251.438 271.933C252.209 272.3 252.961 272.685 253.705 273.092C254.081 273.285 254.457 273.487 254.824 273.702C263.75 278.659 271.382 285.655 277.092 294.057C278.355 295.92 279.533 297.859 280.603 299.857C285.525 309.011 288.311 319.482 288.311 330.616C288.311 330.8 288.311 330.983 288.302 331.167C288.195 344.348 284.173 356.588 277.343 366.786C276.631 367.856 275.887 368.909 275.104 369.93C270.849 375.537 265.707 380.428 259.881 384.414C257.525 386.026 255.057 387.481 252.491 388.776C243.69 393.214 233.743 395.713 223.219 395.713C219.022 395.713 214.92 395.319 210.947 394.553C208.457 394.078 206.016 393.465 203.642 392.721C203.056 392.529 202.465 392.336 201.887 392.135C201.251 391.924 200.624 391.691 199.997 391.45C198.04 390.697 196.118 389.86 194.255 388.933C193.377 388.498 192.509 388.046 191.662 387.562C189.087 386.142 186.624 384.543 184.29 382.797C170.85 372.751 161.413 357.627 158.838 340.268C158.422 337.5 158.184 334.683 158.135 331.807C158.135 331.597 158.126 331.382 158.135 331.172C158.126 330.988 158.126 330.804 158.126 330.621C158.126 327.611 158.328 324.651 158.735 321.744C161.736 299.687 175.785 281.154 195.12 271.883C203.629 267.812 213.16 265.524 223.223 265.524L223.219 265.515Z" stroke="#153A61" stroke-width="0.716121"/>
<path d="M96.2157 254.197C107.309 249.325 119.572 246.624 132.466 246.624C137.983 246.624 143.389 247.117 148.625 248.062C148.916 248.12 149.202 248.169 149.485 248.227C155.92 249.455 162.114 251.362 167.99 253.879C168.232 253.978 168.474 254.081 168.716 254.197C174.735 256.831 180.419 260.1 185.668 263.943C189.004 266.366 192.162 269.017 195.122 271.875C195.776 272.493 196.416 273.129 197.034 273.774C198.808 275.578 200.496 277.451 202.109 279.39C202.668 280.066 203.219 280.751 203.757 281.445C205.271 283.385 206.708 285.391 208.061 287.456C209.722 289.964 211.254 292.57 212.642 295.253C214.246 298.303 215.661 301.456 216.897 304.699C217.439 306.096 217.941 307.516 218.402 308.944C218.944 310.592 219.437 312.263 219.88 313.951C220.556 316.5 221.116 319.093 221.559 321.735C221.568 321.753 221.577 321.785 221.577 321.811C221.703 322.515 221.81 323.222 221.904 323.934C222.254 326.317 222.513 328.722 222.657 331.163C222.791 333.093 222.849 335.041 222.849 337.007C222.849 338.579 222.809 340.143 222.733 341.697C222.607 344.079 222.397 346.444 222.088 348.777C222.088 348.818 222.079 348.853 222.079 348.885C222.021 349.328 221.954 349.772 221.886 350.215C221.367 353.843 220.614 357.394 219.669 360.865C219.66 360.914 219.643 360.973 219.62 361.017C219.293 362.254 218.926 363.467 218.532 364.672C217.963 366.468 217.336 368.233 216.651 369.97C215.33 373.365 213.793 376.657 212.087 379.832C211.944 380.101 211.796 380.374 211.644 380.634L211.326 381.212C209.06 385.242 206.493 389.085 203.654 392.713C203.555 392.829 203.47 392.946 203.376 393.062C202.373 394.334 201.32 395.588 200.241 396.806C199.162 398.042 198.042 399.238 196.882 400.407C187.871 409.561 176.93 416.808 164.708 421.47C162.217 422.424 159.669 423.275 157.085 424.01C149.261 426.209 141.002 427.395 132.475 427.395C130.083 427.395 127.718 427.297 125.372 427.127C103.113 425.389 83.1112 415.599 68.2914 400.653C63.2171 395.539 58.7608 389.829 55.0167 383.626C54.8823 383.402 54.748 383.182 54.6225 382.958C46.655 369.5 42.0913 353.793 42.0913 337.012C42.0913 335.046 42.1495 333.093 42.2839 331.167C42.3332 330.263 42.4093 329.362 42.4944 328.467C45.0338 301.326 59.5804 277.679 80.7689 262.877C81.3959 262.434 82.0408 261.999 82.6902 261.574C86.9628 258.748 91.4907 256.267 96.2246 254.202L96.2157 254.197Z" stroke="#153A61" stroke-width="0.716121"/>
<path d="M177.51 321.734C180.538 310.022 191.192 301.365 203.849 301.365C208.578 301.365 213.017 302.57 216.895 304.693C220.792 306.825 224.124 309.884 226.551 313.578C227.277 314.649 227.904 315.769 228.45 316.937C229.185 318.46 229.762 320.064 230.197 321.734C230.765 323.924 231.066 326.213 231.066 328.573C231.066 329.442 231.025 330.311 230.94 331.157C230.322 337.709 227.389 343.594 222.95 347.957C222.673 348.248 222.381 348.516 222.081 348.776C221.414 349.385 220.711 349.954 219.99 350.491C219.054 351.177 218.06 351.813 217.038 352.372C213.133 354.554 208.637 355.79 203.849 355.79C201.426 355.79 199.075 355.472 196.835 354.872C191.434 353.434 186.687 350.375 183.153 346.237C182.544 345.534 181.984 344.79 181.465 344.029C179.409 341.068 177.935 337.683 177.183 334.032C176.999 333.087 176.856 332.133 176.767 331.157C176.681 330.306 176.641 329.442 176.641 328.573C176.641 328.457 176.641 328.331 176.65 328.215C176.668 325.975 176.968 323.808 177.51 321.73V321.734Z" stroke="#153A61" stroke-width="0.716121"/>
<path d="M156.003 212.371C158.22 212.246 160.46 212.188 162.717 212.188C171.997 212.188 181.039 213.231 189.723 215.188C195.474 216.491 201.081 218.198 206.482 220.294C208.036 220.894 209.568 221.521 211.095 222.175C213.312 223.138 215.493 224.163 217.638 225.252L218.534 225.713C220.85 226.909 223.125 228.181 225.346 229.524C225.355 229.524 225.355 229.533 225.355 229.533C229.032 231.741 232.561 234.137 235.961 236.721C239.037 239.046 242.002 241.527 244.828 244.143C248.129 247.17 251.255 250.395 254.189 253.79C264.31 265.465 272.175 279.107 277.101 294.053C277.755 296.019 278.355 298.007 278.897 300.023C281.137 308.263 282.498 316.858 282.883 325.708C282.91 326.384 282.933 327.06 282.95 327.745C282.959 328.104 282.968 328.471 282.968 328.834C282.977 329.488 282.986 330.146 282.986 330.8V331.158C282.977 332.972 282.937 334.786 282.852 336.582C282.641 340.827 282.207 345.015 281.558 349.126C280.613 355.177 279.193 361.071 277.352 366.781C273.424 378.986 267.539 390.334 260.065 400.474C254.22 408.415 247.395 415.603 239.776 421.891C229.386 430.45 217.5 437.32 204.57 442.045C197.556 444.611 190.234 446.559 182.678 447.795C176.184 448.866 169.52 449.426 162.726 449.426C118.777 449.426 80.3413 426.172 59.3544 391.459C57.8092 388.91 56.3626 386.286 55.0146 383.616C54.7906 383.182 54.5712 382.739 54.3473 382.295C54.3383 382.277 54.3293 382.255 54.3204 382.228C46.7649 366.772 42.5192 349.453 42.4609 331.163V330.804C42.4609 330.025 42.4699 329.241 42.4878 328.462C43.1327 295.213 57.6659 265.313 80.5876 244.174C95.7164 230.205 114.5 220.065 135.37 215.278C142.057 213.742 148.945 212.761 156.008 212.376L156.003 212.371Z" stroke="#153A61" stroke-width="0.716121"/>
<path d="M183.912 299.795C189.488 296.127 196.147 294.004 203.313 294.004C206.538 294.004 209.659 294.438 212.633 295.249C225.245 298.675 235.053 308.891 237.902 321.731C238.452 324.212 238.739 326.788 238.739 329.43C238.739 330.008 238.73 330.59 238.69 331.159C238.439 336.435 237.042 341.406 234.713 345.822C231.354 352.249 226.087 357.515 219.651 360.861C219.217 361.085 218.773 361.304 218.33 361.506C213.766 363.647 208.683 364.843 203.309 364.843C202.74 364.843 202.18 364.834 201.62 364.802C200.644 364.753 199.672 364.668 198.718 364.551C195.534 364.135 192.484 363.297 189.622 362.093C188.126 361.475 186.688 360.74 185.309 359.929C179.693 356.602 175.071 351.778 172.012 346.005C171.094 344.277 170.314 342.476 169.696 340.591C168.742 337.733 168.142 334.715 167.959 331.589C167.95 331.445 167.941 331.289 167.941 331.145C167.923 330.971 167.923 330.796 167.914 330.626C167.905 330.223 167.896 329.824 167.896 329.421C167.896 328.946 167.905 328.476 167.923 328.001C168.008 325.852 168.281 323.755 168.733 321.722C170.27 314.785 173.848 308.609 178.788 303.861C179.357 303.31 179.948 302.791 180.553 302.289V302.28C181.614 301.385 182.743 300.543 183.912 299.781V299.795Z" stroke="#153A61" stroke-width="0.716121"/>
<path d="M200.013 391.106C200.223 387.075 201.227 383.242 202.861 379.78C203.139 379.179 203.439 378.602 203.757 378.024C204.008 377.563 204.277 377.106 204.559 376.662C206.422 373.671 208.787 371.028 211.536 368.838C213.659 367.159 216.002 365.761 218.523 364.682C222.2 363.11 226.253 362.241 230.508 362.241C235.882 362.241 240.93 363.63 245.319 366.061C246.273 366.59 247.191 367.172 248.078 367.799C250.76 369.689 253.125 372.005 255.073 374.638C255.315 374.956 255.535 375.274 255.759 375.601C257.572 378.266 258.983 381.226 259.888 384.41C260.64 387.062 261.048 389.87 261.048 392.777C261.048 393.287 261.039 393.798 261.008 394.299C260.9 396.422 260.582 398.487 260.063 400.475C257.438 410.624 249.708 418.73 239.774 421.892C236.85 422.819 233.746 423.321 230.512 423.321C229.742 423.321 228.99 423.294 228.224 423.236C224.036 422.927 220.091 421.78 216.539 419.944" stroke="#153A61" stroke-width="0.716121"/>
<path d="M215.859 380.955C219.737 376.307 225.582 373.342 232.116 373.342C234.642 373.342 237.074 373.785 239.322 374.605C241.906 375.541 244.262 376.97 246.269 378.783C246.546 379.025 246.819 379.285 247.088 379.554C249.605 382.071 251.495 385.228 252.489 388.766C253 390.589 253.282 392.519 253.282 394.508C253.282 400.335 250.917 405.624 247.097 409.453C247.088 409.462 247.088 409.471 247.079 409.471C246.47 410.08 245.825 410.658 245.14 411.177C241.553 413.994 237.025 415.674 232.116 415.674C223.714 415.674 216.459 410.774 213.033 403.68C211.702 400.912 210.959 397.813 210.95 394.544V394.503C210.95 389.581 212.629 385.049 215.446 381.457C215.473 381.417 215.514 381.372 215.554 381.332C215.653 381.206 215.756 381.072 215.863 380.947L215.859 380.955Z" stroke="#153A61" stroke-width="0.716121"/>
<path d="M148.62 244.151V248.061V252.97V253.879V254.197H168.707H177.458V253.879L177.369 238.517L154.089 222.86L148.62 219.174V231.387" stroke="#153A61" stroke-width="0.716121"/>
<path d="M235.954 229.739V224.741H245.158V229.739V242.253V244.143H244.822H235.954V236.726V235.132V229.739Z" stroke="#153A61" stroke-width="0.716121"/>
<path d="M220.212 350.474C219.226 351.209 218.165 351.854 217.036 352.373C214.622 353.52 211.944 354.16 209.096 354.16C198.84 354.16 190.523 345.843 190.523 335.587C190.523 334.065 190.706 332.578 191.065 331.158C191.96 327.454 193.967 324.194 196.73 321.73C199.758 319.021 203.694 317.283 208.016 317.041C208.375 317.014 208.728 317.001 209.096 317.001C213.852 317.001 218.183 318.797 221.475 321.73C221.515 321.757 221.542 321.789 221.573 321.807C223.06 323.159 224.332 324.74 225.317 326.505C226.128 327.942 226.755 329.505 227.14 331.153C227.4 332.188 227.566 333.258 227.642 334.347" stroke="#153A61" stroke-width="0.716121"/>
<path d="M227.638 334.364C227.665 334.767 227.678 335.175 227.678 335.591C227.678 340.348 225.891 344.679 222.949 347.961C222.671 348.279 222.38 348.588 222.071 348.888C221.493 349.448 220.875 349.977 220.217 350.478" stroke="#153A61" stroke-width="0.716121"/>
<path d="M236.65 332.219C236.758 333.205 236.816 334.208 236.816 335.22C236.816 338.973 236.072 342.551 234.724 345.825C231.916 352.687 226.457 358.173 219.613 361.021C219.188 361.205 218.776 361.371 218.341 361.514C215.381 362.593 212.188 363.176 208.856 363.176C205.152 363.176 201.609 362.45 198.376 361.138C194.506 359.584 191.071 357.183 188.303 354.16C188.227 354.084 188.151 353.994 188.093 353.918C187.398 353.166 186.763 352.382 186.18 351.562C184.976 349.914 183.963 348.127 183.153 346.237C181.773 343.035 180.981 339.533 180.913 335.847C180.895 335.645 180.896 335.43 180.896 335.22C180.896 333.84 180.994 332.479 181.196 331.158C181.679 327.781 182.777 324.597 184.371 321.73C189.127 313.095 198.313 307.26 208.856 307.26C212.206 307.26 215.417 307.846 218.4 308.939C221.391 310.019 224.141 311.604 226.551 313.579C229.301 315.818 231.607 318.577 233.331 321.703" stroke="#153A61" stroke-width="0.716121"/>
<path d="M233.352 321.735C234.933 324.602 236.034 327.786 236.518 331.163C236.576 331.499 236.616 331.848 236.652 332.206" stroke="#153A61" stroke-width="0.716121"/>
<path d="M207.88 331.159C208.749 326.519 212.82 323.017 217.711 323.017C219.207 323.017 220.626 323.344 221.898 323.935C223.219 324.544 224.379 325.422 225.315 326.51C226.435 327.813 227.228 329.403 227.555 331.159C227.671 331.768 227.729 332.386 227.729 333.022C227.729 333.474 227.703 333.918 227.644 334.352V334.361C227.219 337.496 225.356 340.17 222.731 341.693C221.253 342.543 219.538 343.032 217.715 343.032C212.189 343.032 207.71 338.544 207.71 333.017C207.71 332.381 207.768 331.763 207.885 331.154L207.88 331.159Z" stroke="#153A61" stroke-width="0.716121"/>
<path d="M208.014 317.046C210.948 315.049 214.49 313.88 218.31 313.88C218.839 313.88 219.363 313.898 219.873 313.947C223.026 314.216 225.951 315.277 228.45 316.939C230.362 318.202 232.02 319.823 233.332 321.704C233.341 321.713 233.341 321.722 233.341 321.731H233.35C235.24 324.432 236.418 327.665 236.619 331.158C236.637 331.508 236.646 331.853 236.646 332.202V332.22C236.646 341.123 230.3 348.562 221.875 350.215C221.333 350.332 220.774 350.417 220.214 350.475C220.214 350.475 220.214 350.466 220.205 350.475C220.138 350.484 220.062 350.484 219.981 350.493C219.43 350.542 218.87 350.569 218.301 350.569C208.171 350.569 199.961 342.351 199.961 332.22C199.961 331.862 199.97 331.508 199.988 331.158C200.19 327.665 201.368 324.432 203.258 321.731C204.543 319.89 206.151 318.296 208.005 317.042L208.014 317.046Z" stroke="#153A61" stroke-width="0.716121"/>
<path d="M219.747 225.251C220.074 225.175 220.401 225.135 220.75 225.135C221.1 225.135 221.427 225.175 221.753 225.251C223.415 225.618 224.745 226.89 225.18 228.521C225.278 228.848 225.332 229.174 225.345 229.524C225.354 229.591 225.354 229.667 225.354 229.734C225.354 232.274 223.29 234.325 220.75 234.325C218.211 234.325 216.16 232.269 216.16 229.734C216.16 227.997 217.114 226.492 218.533 225.713C218.699 225.614 218.869 225.529 219.053 225.471C219.277 225.372 219.505 225.296 219.747 225.247V225.251Z" stroke="#153A61" stroke-width="0.716121"/>
<path d="M235.954 229.739C235.954 227.199 238.019 225.135 240.558 225.135C243.098 225.135 245.162 227.199 245.162 229.739C245.162 232.278 243.098 234.329 240.558 234.329C238.019 234.329 235.954 232.274 235.954 229.739Z" stroke="#153A61" stroke-width="0.716121"/>
<path d="M214.169 374.998C214.34 374.998 214.478 374.938 214.478 374.864C214.478 374.79 214.34 374.729 214.169 374.729C213.998 374.729 213.86 374.79 213.86 374.864C213.86 374.938 213.998 374.998 214.169 374.998Z" fill="#2B85F0"/>
</svg>
