<svg width="345" height="492" viewBox="0 0 345 492" fill="none" xmlns="http://www.w3.org/2000/svg">
<g clip-path="url(#clip0_2303_8437)">
<rect width="345" height="492" fill="white"/>
<path d="M235.389 99.0791H225.723V157.21H235.389V99.0791Z" fill="#6CC9FF"/>
<path d="M230.55 166.903C218.6 166.903 208.633 175.389 206.354 186.662V206.133H254.796V186.98C252.642 175.546 242.604 166.903 230.55 166.903Z" fill="#6CC9FF"/>
<path d="M208.694 95.3275L186.086 111.15L194.671 137.833L172.511 121.553L149.899 137.833L158.95 111.15L135.436 95.3275H163.02L172.511 70L181.105 95.3275H208.694Z" fill="#6CC9FF"/>
<path d="M237.385 215.297H206.354V254.064H254.796V215.297H237.385ZM225.264 229.962V244.367H216.051V229.962C216.051 228.221 217.007 226.713 218.429 225.932C218.595 225.834 218.766 225.748 218.95 225.69C219.174 225.591 219.403 225.515 219.646 225.466C219.973 225.389 220.305 225.349 220.651 225.349C220.996 225.349 221.328 225.389 221.656 225.466C223.321 225.834 224.654 227.108 225.089 228.741C225.188 229.069 225.241 229.397 225.255 229.747C225.264 229.747 225.264 229.756 225.264 229.756V229.958V229.962ZM235.89 244.394V229.962C235.89 227.418 237.959 225.349 240.503 225.349C243.048 225.349 245.117 227.418 245.117 229.962V244.394H235.895H235.89Z" fill="#6CC9FF"/>
<path d="M189.833 216.889L189.564 215.382L177.277 147.521H167.602L155.777 212.559L154.983 216.903L153.861 223.069L177.192 238.757L177.277 254.149H196.582L189.833 216.889Z" fill="#6CC9FF"/>
<path d="M223.128 264.233H157.902V322.14H167.658C168.529 301.561 180.062 283.741 196.881 274.083C205.425 269.161 215.334 266.36 225.893 266.36C232.426 266.36 238.722 267.433 244.588 269.425C244.938 269.542 245.283 269.668 245.633 269.793C247.617 270.498 249.537 271.31 251.404 272.239C252.176 272.607 252.93 272.993 253.675 273.401C254.052 273.594 254.429 273.796 254.797 274.012V264.238H223.128V264.233Z" fill="#6CC9FF"/>
<path d="M282.94 331.581C282.967 330.809 282.989 330.033 282.989 329.252C282.989 328.884 282.98 328.516 282.971 328.162C282.953 327.475 282.931 326.797 282.904 326.12C281.8 306.99 270.725 290.534 254.803 281.882C249.952 279.243 244.653 277.327 239.057 276.286C234.502 274.863 229.651 274.101 224.625 274.101C216.444 274.101 208.73 276.12 201.976 279.705C192.745 284.588 185.283 292.36 180.786 301.824C180.652 302.103 180.526 302.376 180.391 302.655V302.664C178.157 307.604 176.739 312.98 176.272 318.626C176.173 319.788 176.119 320.955 176.119 322.135C176.11 322.301 176.11 322.463 176.11 322.629C176.11 324.657 176.236 326.667 176.478 328.633C176.469 328.75 176.469 328.875 176.469 328.992C176.469 329.862 176.51 330.733 176.595 331.581C176.68 332.559 176.828 333.515 177.012 334.462C177.766 338.115 179.247 341.508 181.302 344.478C181.823 345.241 182.384 345.986 182.994 346.691C186.53 350.837 191.287 353.902 196.703 355.343C198.947 355.944 201.303 356.262 203.731 356.262C208.528 356.262 213.029 355.024 216.947 352.838C217.97 352.278 218.966 351.64 219.904 350.954C220.631 350.411 221.335 349.841 222 349.235C222.3 348.975 222.587 348.705 222.87 348.414C225.818 345.129 227.609 340.785 227.609 336.019C227.609 335.602 227.6 335.198 227.569 334.79V334.781C227.627 334.345 227.654 333.901 227.654 333.448C227.654 332.811 227.595 332.191 227.479 331.581C227.151 329.822 226.357 328.224 225.235 326.923C224.297 325.833 223.139 324.953 221.811 324.343C220.537 323.755 219.114 323.423 217.615 323.423C212.715 323.423 208.636 326.932 207.765 331.581H199.867C200.069 328.081 201.249 324.841 203.143 322.135C204.431 320.291 206.042 318.693 207.9 317.437C210.839 315.435 214.389 314.264 218.217 314.264C218.746 314.264 219.271 314.282 219.783 314.331C222.942 314.6 225.872 315.664 228.376 317.329C230.292 318.594 231.953 320.219 233.268 322.104C233.277 322.112 233.277 322.121 233.277 322.13H233.286C234.87 325.002 235.974 328.193 236.458 331.577C236.517 331.913 236.557 332.263 236.593 332.622V332.64C236.701 333.627 236.759 334.633 236.759 335.647C236.759 339.407 236.014 342.993 234.663 346.273C231.298 352.713 226.02 357.99 219.572 361.342C219.137 361.567 218.692 361.787 218.248 361.989C213.675 364.134 208.582 365.332 203.197 365.332C202.627 365.332 202.066 365.323 201.505 365.291C200.527 365.242 199.553 365.157 198.597 365.04C195.407 364.623 192.351 363.784 189.483 362.576C187.984 361.957 186.544 361.221 185.162 360.409C179.534 357.075 174.903 352.242 171.838 346.457C171.134 344.725 170.514 342.957 169.994 341.149C169.123 338.209 168.477 335.167 168.078 332.052C168.06 331.886 168.037 331.734 168.019 331.568H117.885C124.45 336.033 129.696 342.27 132.967 349.59C135.328 354.867 136.643 360.705 136.67 366.853V367.037C136.768 381.635 148.629 393.437 163.245 393.437C166.669 393.437 169.935 392.791 172.942 391.602C173.714 391.216 174.508 390.857 175.32 390.538C175.329 390.538 175.338 390.538 175.338 390.529C178.762 389.187 182.483 388.442 186.387 388.442C187.944 388.442 189.47 388.559 190.959 388.792C192.032 388.958 193.087 389.169 194.119 389.448C196.138 389.977 198.063 390.713 199.89 391.633C200.527 391.952 201.155 392.302 201.765 392.656C202.268 392.957 202.762 393.275 203.246 393.594C207.258 396.309 210.583 399.975 212.903 404.256L212.93 404.238C216.363 411.342 223.633 416.256 232.052 416.256C236.974 416.256 241.507 414.573 245.101 411.751C245.756 411.199 246.407 410.629 247.044 410.041C247.053 410.041 247.053 410.032 247.062 410.023C252.156 405.41 256.827 400.325 260.992 394.837C266.677 387.383 271.443 379.185 275.127 370.416C277.932 363.766 280.104 356.796 281.585 349.572C282.231 345.452 282.666 341.256 282.882 337.002C282.967 335.203 283.007 333.385 283.016 331.568H282.949L282.94 331.581Z" fill="#6CC9FF"/>
<path d="M254.794 274.007C254.426 273.796 254.049 273.589 253.672 273.396C254.049 273.598 254.426 273.8 254.794 274.016V274.007Z" fill="#6CC9FF"/>
<path d="M148.377 253.239V254.15H148.211L148.377 253.239Z" fill="#6CC9FF"/>
<path d="M151.89 233.956L148.381 231.613L138.522 225.039L137.167 221.261L135.098 215.472L114.285 157.206L90.2047 225.039L61 244.425H80.2066L97.829 244.416L148.381 244.403H149.987H167.569L151.89 233.956Z" fill="#6CC9FF"/>
<path d="M119.05 99.0879H109.613V147.54H119.05V99.0879Z" fill="#6CC9FF"/>
<path d="M95.8673 254.468H80.3809V263.448H90.0784V273.531H80.3809V283.081H90.0784V292.778H80.3809V302.444H90.0784V312.178H80.3809V322.136H148.38V254.464H95.8673V254.468ZM123.73 302.803C115.985 302.803 109.711 296.53 109.711 288.784C109.711 281.039 115.985 274.765 123.73 274.765C131.476 274.765 137.749 281.039 137.749 288.784C137.749 296.53 131.467 302.803 123.73 302.803Z" fill="#6CC9FF"/>
<path d="M216.432 420.542C211.24 417.863 206.91 413.748 203.97 408.708C203.944 408.659 203.912 408.61 203.885 408.556C202.175 405.464 199.707 402.852 196.732 400.967C193.456 398.858 189.561 397.651 185.383 397.651C182.462 397.651 179.68 398.239 177.158 399.316L177.14 399.267C172.953 401.026 168.353 402.004 163.529 402.004C162.775 402.004 162.021 401.986 161.276 401.928C149.173 401.165 138.74 394.272 133.036 384.323C130.281 379.499 128.63 373.948 128.437 368.042C128.486 367.289 128.513 366.526 128.513 365.763C128.513 365.386 128.504 365.018 128.495 364.65C127.952 347.566 114.97 333.628 98.303 331.586H61.0566C61.124 334.032 61.281 336.45 61.5189 338.847C61.8868 342.76 62.4747 346.619 63.26 350.398C67.0879 368.922 75.6321 385.741 87.6496 399.594C90.764 403.18 94.1162 406.572 97.6748 409.745C105.797 416.974 115.019 423.068 125.08 427.735C136.806 433.188 149.685 436.724 163.305 437.935C166.311 438.214 169.358 438.371 172.441 438.411C174.093 438.429 175.726 438.411 177.364 438.353C184.468 438.128 191.41 437.222 198.11 435.674C203.553 434.435 208.848 432.775 213.955 430.733C218.865 428.781 223.612 426.47 228.145 423.84C223.949 423.531 219.995 422.382 216.437 420.542H216.432Z" fill="#6CC9FF"/>
<g clip-path="url(#clip1_2303_8437)">
<path d="M314.59 368.12C314.749 368.12 314.877 368.063 314.877 367.994C314.877 367.924 314.749 367.868 314.59 367.868C314.431 367.868 314.302 367.924 314.302 367.994C314.302 368.063 314.431 368.12 314.59 368.12Z" fill="#B72020"/>
<path d="M282.952 50.3906H60.9993V254.03H282.952V50.3906Z" stroke="black" stroke-opacity="0.4" stroke-width="0.262286"/>
<path d="M254.813 273.466C254.445 273.255 254.068 273.048 253.691 272.855C254.068 273.057 254.445 273.259 254.813 273.475V273.466Z" fill="#153A61"/>
<path d="M148.386 252.694V253.605H148.22L148.386 252.694Z" fill="#153A61"/>
<path d="M61.3374 244.508H283.29" stroke="black" stroke-opacity="0.4" stroke-width="0.262286"/>
<path d="M61.3374 234.983H283.29" stroke="black" stroke-opacity="0.4" stroke-width="0.262286"/>
<path d="M61.3374 224.729H283.29" stroke="black" stroke-opacity="0.4" stroke-width="0.262286"/>
<path d="M60.9993 215.208H282.952" stroke="black" stroke-opacity="0.4" stroke-width="0.262286"/>
<path d="M60.9993 205.686H282.952" stroke="black" stroke-opacity="0.4" stroke-width="0.262286"/>
<path d="M60.9993 196.163H282.952" stroke="black" stroke-opacity="0.4" stroke-width="0.262286"/>
<path d="M60.9993 185.907H282.952" stroke="black" stroke-opacity="0.4" stroke-width="0.262286"/>
<path d="M60.9993 176.385H282.952" stroke="black" stroke-opacity="0.4" stroke-width="0.262286"/>
<path d="M60.9993 166.86H282.952" stroke="black" stroke-opacity="0.4" stroke-width="0.262286"/>
<path d="M60.9993 157.338H282.952" stroke="black" stroke-opacity="0.4" stroke-width="0.262286"/>
<path d="M60.9993 147.084H282.952" stroke="black" stroke-opacity="0.4" stroke-width="0.262286"/>
<path d="M60.9993 137.562H282.952" stroke="black" stroke-opacity="0.4" stroke-width="0.262286"/>
<path d="M60.9993 128.039H282.952" stroke="black" stroke-opacity="0.4" stroke-width="0.262286"/>
<path d="M60.9993 118.515H282.952" stroke="black" stroke-opacity="0.4" stroke-width="0.262286"/>
<path d="M60.9993 108.261H282.952" stroke="black" stroke-opacity="0.4" stroke-width="0.262286"/>
<path d="M60.9993 98.7363H282.952" stroke="black" stroke-opacity="0.4" stroke-width="0.262286"/>
<path d="M60.9993 89.2139H282.952" stroke="black" stroke-opacity="0.4" stroke-width="0.262286"/>
<path d="M60.9993 79.6934H282.952" stroke="black" stroke-opacity="0.4" stroke-width="0.262286"/>
<path d="M60.9993 69.4375H282.952" stroke="black" stroke-opacity="0.4" stroke-width="0.262286"/>
<path d="M60.9993 59.915H282.952" stroke="black" stroke-opacity="0.4" stroke-width="0.262286"/>
<path d="M255.262 50.3906V254.014" stroke="black" stroke-opacity="0.4" stroke-width="0.262286"/>
<path d="M274.162 50.3906V254.014" stroke="black" stroke-opacity="0.4" stroke-width="0.262286"/>
<path d="M264.639 50.3906V254.014" stroke="black" stroke-opacity="0.4" stroke-width="0.262286"/>
<path d="M282.952 50.3906V254.014" stroke="black" stroke-opacity="0.4" stroke-width="0.262286"/>
<path d="M245.568 50.3906V254.014" stroke="black" stroke-opacity="0.4" stroke-width="0.262286"/>
<path d="M235.874 50.3906V254.014" stroke="black" stroke-opacity="0.4" stroke-width="0.262286"/>
<path d="M226.173 50.3906V254.014" stroke="black" stroke-opacity="0.4" stroke-width="0.262286"/>
<path d="M216.479 50.3906V254.014" stroke="black" stroke-opacity="0.4" stroke-width="0.262286"/>
<path d="M206.779 50.3906V254.014" stroke="black" stroke-opacity="0.4" stroke-width="0.262286"/>
<path d="M197.087 50.3906V254.014" stroke="black" stroke-opacity="0.4" stroke-width="0.262286"/>
<path d="M187.39 50.3906V254.014" stroke="black" stroke-opacity="0.4" stroke-width="0.262286"/>
<path d="M177.69 50.3906V254.014" stroke="black" stroke-opacity="0.4" stroke-width="0.262286"/>
<path d="M167.999 50.3906V254.014" stroke="black" stroke-opacity="0.4" stroke-width="0.262286"/>
<path d="M158.301 50.3906V254.014" stroke="black" stroke-opacity="0.4" stroke-width="0.262286"/>
<path d="M148.601 50.3906V254.014" stroke="black" stroke-opacity="0.4" stroke-width="0.262286"/>
<path d="M138.909 50.3906V254.014" stroke="black" stroke-opacity="0.4" stroke-width="0.262286"/>
<path d="M129.209 50.3906V254.014" stroke="black" stroke-opacity="0.4" stroke-width="0.262286"/>
<path d="M119.518 50.3906V254.014" stroke="black" stroke-opacity="0.4" stroke-width="0.262286"/>
<path d="M109.821 50.3906V254.014" stroke="black" stroke-opacity="0.4" stroke-width="0.262286"/>
<path d="M100.121 50.3906V254.014" stroke="black" stroke-opacity="0.4" stroke-width="0.262286"/>
<path d="M90.4258 50.3906V254.014" stroke="black" stroke-opacity="0.4" stroke-width="0.262286"/>
<path d="M80.7258 50.3906V254.014" stroke="black" stroke-opacity="0.4" stroke-width="0.262286"/>
<path d="M71.0339 50.3906V254.014" stroke="black" stroke-opacity="0.4" stroke-width="0.262286"/>
<path d="M311.456 374.936C311.627 374.936 311.766 374.876 311.766 374.802C311.766 374.727 311.627 374.667 311.456 374.667C311.285 374.667 311.146 374.727 311.146 374.802C311.146 374.876 311.285 374.936 311.456 374.936Z" fill="#B72020"/>
<path d="M282.951 254.03H60.9985V457.67H282.951V254.03Z" stroke="black" stroke-opacity="0.4" stroke-width="0.262286"/>
<path d="M61.731 448.119H282.951" stroke="black" stroke-opacity="0.4" stroke-width="0.262286"/>
<path d="M61.731 437.863H282.951" stroke="black" stroke-opacity="0.4" stroke-width="0.262286"/>
<path d="M61.731 428.343H282.951" stroke="black" stroke-opacity="0.4" stroke-width="0.262286"/>
<path d="M61.731 418.82H282.951" stroke="black" stroke-opacity="0.4" stroke-width="0.262286"/>
<path d="M61.731 409.296H282.951" stroke="black" stroke-opacity="0.4" stroke-width="0.262286"/>
<path d="M61.731 399.773H282.951" stroke="black" stroke-opacity="0.4" stroke-width="0.262286"/>
<path d="M61.731 389.518H282.951" stroke="black" stroke-opacity="0.4" stroke-width="0.262286"/>
<path d="M61.731 379.995H282.951" stroke="black" stroke-opacity="0.4" stroke-width="0.262286"/>
<path d="M61.731 370.473H282.951" stroke="black" stroke-opacity="0.4" stroke-width="0.262286"/>
<path d="M61.731 360.95H282.951" stroke="black" stroke-opacity="0.4" stroke-width="0.262286"/>
<path d="M61.731 350.696H282.951" stroke="black" stroke-opacity="0.4" stroke-width="0.262286"/>
<path d="M61.731 341.172H282.951" stroke="black" stroke-opacity="0.4" stroke-width="0.262286"/>
<path d="M60.9985 331.649H282.951" stroke="black" stroke-opacity="0.4" stroke-width="0.262286"/>
<path d="M61.731 322.127H282.951" stroke="black" stroke-opacity="0.4" stroke-width="0.262286"/>
<path d="M61.731 311.871H282.951" stroke="black" stroke-opacity="0.4" stroke-width="0.262286"/>
<path d="M61.731 302.349H282.951" stroke="black" stroke-opacity="0.4" stroke-width="0.262286"/>
<path d="M61.731 292.826H282.951" stroke="black" stroke-opacity="0.4" stroke-width="0.262286"/>
<path d="M61.731 283.304H282.951" stroke="black" stroke-opacity="0.4" stroke-width="0.262286"/>
<path d="M61.731 273.048H282.951" stroke="black" stroke-opacity="0.4" stroke-width="0.262286"/>
<path d="M61.731 263.525H282.951" stroke="black" stroke-opacity="0.4" stroke-width="0.262286"/>
<path d="M255.261 254.014V457.637" stroke="black" stroke-opacity="0.4" stroke-width="0.262286"/>
<path d="M274.161 254.014V457.637" stroke="black" stroke-opacity="0.4" stroke-width="0.262286"/>
<path d="M264.638 254.014V457.637" stroke="black" stroke-opacity="0.4" stroke-width="0.262286"/>
<path d="M282.951 254.014V457.637" stroke="black" stroke-opacity="0.4" stroke-width="0.262286"/>
<path d="M245.567 254.014V457.637" stroke="black" stroke-opacity="0.4" stroke-width="0.262286"/>
<path d="M235.873 254.014V457.637" stroke="black" stroke-opacity="0.4" stroke-width="0.262286"/>
<path d="M226.172 254.014V457.637" stroke="black" stroke-opacity="0.4" stroke-width="0.262286"/>
<path d="M216.478 254.014V457.637" stroke="black" stroke-opacity="0.4" stroke-width="0.262286"/>
<path d="M206.778 254.014V457.637" stroke="black" stroke-opacity="0.4" stroke-width="0.262286"/>
<path d="M197.087 254.014V457.637" stroke="black" stroke-opacity="0.4" stroke-width="0.262286"/>
<path d="M187.389 254.014V457.637" stroke="black" stroke-opacity="0.4" stroke-width="0.262286"/>
<path d="M177.689 254.014V457.637" stroke="black" stroke-opacity="0.4" stroke-width="0.262286"/>
<path d="M167.998 254.014V457.637" stroke="black" stroke-opacity="0.4" stroke-width="0.262286"/>
<path d="M158.3 254.014V457.637" stroke="black" stroke-opacity="0.4" stroke-width="0.262286"/>
<path d="M148.6 254.014V457.637" stroke="black" stroke-opacity="0.4" stroke-width="0.262286"/>
<path d="M138.908 254.014V457.637" stroke="black" stroke-opacity="0.4" stroke-width="0.262286"/>
<path d="M129.209 254.014V457.637" stroke="black" stroke-opacity="0.4" stroke-width="0.262286"/>
<path d="M119.517 254.014V457.637" stroke="black" stroke-opacity="0.4" stroke-width="0.262286"/>
<path d="M109.82 254.014V457.637" stroke="black" stroke-opacity="0.4" stroke-width="0.262286"/>
<path d="M100.12 254.014V457.637" stroke="black" stroke-opacity="0.4" stroke-width="0.262286"/>
<path d="M90.425 254.014V457.637" stroke="black" stroke-opacity="0.4" stroke-width="0.262286"/>
<path d="M80.7251 254.014V457.637" stroke="black" stroke-opacity="0.4" stroke-width="0.262286"/>
<path d="M71.0334 254.014V457.637" stroke="black" stroke-opacity="0.4" stroke-width="0.262286"/>
</g>
<path d="M268.232 438.94L7.45634 438.94" stroke="#153A61" stroke-width="0.665645" stroke-dasharray="2.66 2.66"/>
<path d="M173.074 69.4365L7.52485 69.4365" stroke="#153A61" stroke-width="0.665645" stroke-dasharray="2.66 2.66"/>
<path d="M118.867 132.432L118.867 37.2044" stroke="#153A61" stroke-width="0.665645" stroke-dasharray="2.66 2.66"/>
<path d="M109.344 132.432L109.344 37.2044" stroke="#153A61" stroke-width="0.665645" stroke-dasharray="2.66 2.66"/>
<path d="M118.867 37.2041L109.344 37.2041" stroke="#153A61" stroke-width="0.665645"/>
<path d="M7.4563 435.279L7.45628 69.7532" stroke="#153A61" stroke-width="0.665645"/>
<path d="M28.6377 384.807V394.489H26.5906V386.75H26.5339L24.3167 388.14V386.325L26.7136 384.807H28.6377ZM35.1511 384.807V394.489H33.1041V386.75H33.0473L30.8301 388.14V386.325L33.227 384.807H35.1511Z" fill="#2B85F0"/>
<path d="M296.869 438.625L40.4882 438.625" stroke="#153A61" stroke-width="0.665645" stroke-dasharray="2.66 2.66"/>
<path d="M68.324 331.678H40.4883" stroke="#153A61" stroke-width="0.665645" stroke-dasharray="2.66 2.66"/>
<path d="M40.4197 438.208L40.4197 331.993" stroke="#153A61" stroke-width="0.665645"/>
<path d="M108.544 321.581L40.4198 321.581" stroke="#153A61" stroke-width="0.665645" stroke-dasharray="2.66 2.66"/>
<path d="M109.276 254.188L40.4198 254.188" stroke="#153A61" stroke-width="0.665645" stroke-dasharray="2.66 2.66"/>
<path d="M40.4197 321.736L40.4197 254.345" stroke="#153A61" stroke-width="0.665645"/>
<path d="M-7.88961 248.117C-8.59559 248.117 -9.22436 247.995 -9.77592 247.753C-10.3243 247.507 -10.7577 247.17 -11.076 246.741C-11.3912 246.309 -11.5535 245.811 -11.5629 245.247H-9.50172C-9.48911 245.483 -9.41189 245.691 -9.27006 245.871C-9.12508 246.048 -8.93283 246.185 -8.6933 246.282C-8.45377 246.38 -8.18429 246.429 -7.88488 246.429C-7.57286 246.429 -7.29708 246.374 -7.05755 246.264C-6.81802 246.153 -6.63049 246 -6.49497 245.805C-6.35944 245.61 -6.29168 245.384 -6.29168 245.129C-6.29168 244.87 -6.36417 244.642 -6.50915 244.443C-6.65098 244.242 -6.85584 244.084 -7.12374 243.971C-7.38848 243.857 -7.70366 243.8 -8.06926 243.8H-8.97223V242.297H-8.06926C-7.76039 242.297 -7.48776 242.244 -7.25138 242.136C-7.01185 242.029 -6.8259 241.881 -6.69353 241.692C-6.56115 241.5 -6.49497 241.276 -6.49497 241.021C-6.49497 240.778 -6.55328 240.565 -6.66989 240.382C-6.78335 240.196 -6.94409 240.051 -7.1521 239.947C-7.35697 239.843 -7.5965 239.791 -7.8707 239.791C-8.14805 239.791 -8.40176 239.842 -8.63184 239.943C-8.86192 240.04 -9.04629 240.181 -9.18497 240.363C-9.32364 240.546 -9.39771 240.761 -9.40716 241.006H-11.3691C-11.3597 240.449 -11.2005 239.957 -10.8916 239.531C-10.5828 239.106 -10.1667 238.773 -9.64354 238.534C-9.11721 238.291 -8.5231 238.17 -7.86124 238.17C-7.19308 238.17 -6.60843 238.291 -6.10731 238.534C-5.60618 238.777 -5.21694 239.104 -4.93959 239.517C-4.65909 239.927 -4.52041 240.387 -4.52356 240.898C-4.52041 241.44 -4.68903 241.892 -5.02942 242.255C-5.36665 242.617 -5.80632 242.847 -6.34841 242.945V243.02C-5.63612 243.112 -5.09403 243.359 -4.72212 243.763C-4.34707 244.163 -4.16111 244.664 -4.16427 245.266C-4.16111 245.818 -4.32028 246.308 -4.64175 246.736C-4.96008 247.165 -5.39974 247.502 -5.96075 247.748C-6.52176 247.994 -7.16471 248.117 -7.88961 248.117ZM0.919075 248.117C0.191026 248.117 -0.456653 247.999 -1.02396 247.762C-1.58812 247.523 -2.03094 247.196 -2.35242 246.784C-2.67389 246.371 -2.83463 245.903 -2.83463 245.379C-2.83463 244.976 -2.74323 244.606 -2.56043 244.268C-2.37448 243.928 -2.12234 243.646 -1.80402 243.422C-1.48569 243.195 -1.12955 243.05 -0.735581 242.987V242.921C-1.25246 242.817 -1.67164 242.567 -1.99312 242.169C-2.3146 241.769 -2.47533 241.304 -2.47533 240.775C-2.47533 240.274 -2.32878 239.828 -2.03567 239.437C-1.74256 239.043 -1.34071 238.734 -0.830133 238.51C-0.316402 238.283 0.266668 238.17 0.919075 238.17C1.57148 238.17 2.15298 238.283 2.66356 238.51C3.17729 238.737 3.58071 239.048 3.87382 239.442C4.16693 239.832 4.31506 240.277 4.31821 240.775C4.31506 241.307 4.15117 241.772 3.82654 242.169C3.50192 242.567 3.08589 242.817 2.57846 242.921V242.987C2.96612 243.05 3.31754 243.195 3.63271 243.422C3.95104 243.646 4.20317 243.928 4.38913 244.268C4.57823 244.606 4.67436 244.976 4.67751 245.379C4.67436 245.903 4.51204 246.371 4.19057 246.784C3.86909 247.196 3.4247 247.523 2.85739 247.762C2.29323 247.999 1.64712 248.117 0.919075 248.117ZM0.919075 246.613C1.2437 246.613 1.52736 246.555 1.77004 246.438C2.01272 246.319 2.20183 246.155 2.33735 245.947C2.47603 245.736 2.54537 245.493 2.54537 245.219C2.54537 244.938 2.47445 244.691 2.33263 244.477C2.1908 244.259 1.99854 244.089 1.75586 243.966C1.51318 243.84 1.23425 243.777 0.919075 243.777C0.607054 243.777 0.328126 243.84 0.0822917 243.966C-0.163543 244.089 -0.357374 244.259 -0.499202 244.477C-0.637878 244.691 -0.707216 244.938 -0.707216 245.219C-0.707216 245.493 -0.639454 245.736 -0.503929 245.947C-0.368405 246.155 -0.177726 246.319 0.0681093 246.438C0.313944 246.555 0.597599 246.613 0.919075 246.613ZM0.919075 242.288C1.19012 242.288 1.43123 242.232 1.6424 242.122C1.85356 242.012 2.01903 241.859 2.13879 241.664C2.25856 241.468 2.31844 241.243 2.31844 240.988C2.31844 240.735 2.25856 240.515 2.13879 240.326C2.01903 240.133 1.85514 239.984 1.64712 239.877C1.43911 239.766 1.19643 239.711 0.919075 239.711C0.644875 239.711 0.402192 239.766 0.191026 239.877C-0.0201394 239.984 -0.185605 240.133 -0.305371 240.326C-0.421985 240.515 -0.480291 240.735 -0.480291 240.988C-0.480291 241.243 -0.420409 241.468 -0.300643 241.664C-0.180877 241.859 -0.0154117 242.012 0.195754 242.122C0.40692 242.232 0.648027 242.288 0.919075 242.288Z" fill="#2B85F0"/>
<path d="M216.292 273.809L296.869 273.809" stroke="#153A61" stroke-width="0.665645" stroke-dasharray="2.66 2.66"/>
<path d="M296.869 436.376L296.869 273.025" stroke="#153A61" stroke-width="0.665645"/>
<path d="M238.337 254.031L296.938 254.031" stroke="#153A61" stroke-width="0.665645" stroke-dasharray="2.66 2.66"/>
<path d="M232.476 205.686L296.938 205.686" stroke="#153A61" stroke-width="0.665645" stroke-dasharray="2.66 2.66"/>
<path d="M232.459 156.605L296.921 156.605" stroke="#153A61" stroke-width="0.665645" stroke-dasharray="2.66 2.66"/>
<path d="M232.476 166.86L296.938 166.86" stroke="#153A61" stroke-width="0.665645" stroke-dasharray="2.66 2.66"/>
<path d="M238.337 215.208L296.938 215.208" stroke="#153A61" stroke-width="0.665645" stroke-dasharray="2.66 2.66"/>
<path d="M296.904 205.686L296.904 166.862" stroke="#153A61" stroke-width="0.665645"/>
<path d="M232.459 98.7354L296.921 98.7353" stroke="#153A61" stroke-width="0.665645" stroke-dasharray="2.66 2.66"/>
<path d="M296.904 254.031L296.904 215.208" stroke="#153A61" stroke-width="0.665645"/>
<path d="M299.774 185.485V183.872L303.816 177.504H305.206V179.736H304.383L301.835 183.768V183.844H307.579V185.485H299.774ZM304.421 187.187V184.993L304.459 184.279V177.504H306.378V187.187H304.421Z" fill="#2B85F0"/>
<path d="M296.921 156.605L296.921 98.7366" stroke="#153A61" stroke-width="0.665645"/>
<path d="M306.261 350.327V360.009H304.214V352.27H304.158L301.94 353.66V351.844L304.337 350.327H306.261ZM308.946 360.009L312.959 352.066V352H308.284V350.327H315.077V352.024L311.059 360.009H308.946Z" fill="#2B85F0"/>
<path d="M299.774 233.83V232.218L303.816 225.85H305.206V228.082H304.383L301.835 232.114V232.19H307.579V233.83H299.774ZM304.421 235.532V233.339L304.459 232.625V225.85H306.378V235.532H304.421Z" fill="#2B85F0"/>
<path d="M303.619 140.38C303.121 140.377 302.64 140.294 302.177 140.13C301.717 139.966 301.304 139.7 300.939 139.331C300.573 138.962 300.283 138.474 300.069 137.865C299.857 137.257 299.752 136.51 299.752 135.624C299.755 134.811 299.848 134.085 300.031 133.445C300.217 132.802 300.482 132.257 300.825 131.809C301.172 131.362 301.586 131.021 302.068 130.788C302.551 130.552 303.091 130.434 303.69 130.434C304.336 130.434 304.907 130.56 305.401 130.812C305.896 131.061 306.293 131.4 306.593 131.828C306.895 132.257 307.078 132.737 307.141 133.27H305.122C305.044 132.933 304.878 132.668 304.626 132.476C304.374 132.284 304.062 132.188 303.69 132.188C303.06 132.188 302.581 132.462 302.253 133.01C301.928 133.559 301.763 134.304 301.756 135.246H301.823C301.968 134.959 302.163 134.715 302.409 134.513C302.658 134.309 302.94 134.153 303.255 134.045C303.573 133.935 303.909 133.88 304.262 133.88C304.836 133.88 305.346 134.016 305.794 134.287C306.241 134.554 306.594 134.923 306.853 135.393C307.111 135.862 307.24 136.4 307.24 137.005C307.24 137.66 307.088 138.244 306.782 138.754C306.479 139.265 306.055 139.665 305.51 139.955C304.968 140.242 304.338 140.384 303.619 140.38ZM303.61 138.773C303.925 138.773 304.207 138.697 304.456 138.546C304.705 138.395 304.9 138.19 305.042 137.932C305.184 137.673 305.255 137.383 305.255 137.062C305.255 136.74 305.184 136.452 305.042 136.197C304.903 135.941 304.711 135.738 304.465 135.587C304.219 135.435 303.939 135.36 303.624 135.36C303.387 135.36 303.168 135.404 302.967 135.492C302.768 135.58 302.593 135.703 302.442 135.861C302.294 136.018 302.177 136.201 302.092 136.409C302.007 136.614 301.964 136.833 301.964 137.066C301.964 137.378 302.035 137.664 302.177 137.922C302.322 138.181 302.518 138.387 302.763 138.541C303.012 138.696 303.294 138.773 303.61 138.773Z" fill="#2B85F0"/>
<path d="M283.284 360.246L283.284 476.716" stroke="#153A61" stroke-width="0.665645" stroke-dasharray="2.66 2.66"/>
<path d="M60.2664 360.246L60.2664 476.716" stroke="#153A61" stroke-width="0.665645" stroke-dasharray="2.66 2.66"/>
<path d="M283.684 476.801H60.9986" stroke="#153A61" stroke-width="0.665645"/>
<path d="M162.138 491.914L162.138 490.439L165.585 487.248C165.878 486.964 166.124 486.709 166.322 486.482C166.524 486.255 166.677 486.033 166.781 485.815C166.885 485.595 166.937 485.357 166.937 485.102C166.937 484.818 166.872 484.574 166.743 484.369C166.614 484.161 166.437 484.002 166.213 483.891C165.99 483.778 165.736 483.721 165.452 483.721C165.156 483.721 164.898 483.781 164.677 483.901C164.456 484.021 164.286 484.192 164.166 484.416C164.047 484.64 163.987 484.906 163.987 485.215L162.044 485.215C162.044 484.582 162.187 484.032 162.474 483.565C162.761 483.099 163.163 482.738 163.679 482.483C164.196 482.227 164.792 482.1 165.467 482.1C166.16 482.1 166.763 482.223 167.277 482.468C167.794 482.711 168.196 483.048 168.483 483.48C168.77 483.912 168.913 484.407 168.913 484.965C168.913 485.33 168.84 485.691 168.695 486.047C168.554 486.403 168.3 486.799 167.934 487.234C167.569 487.666 167.053 488.184 166.388 488.789L164.975 490.174L164.975 490.24L169.041 490.24L169.041 491.914L162.138 491.914ZM174.103 492.046C173.397 492.046 172.768 491.925 172.216 491.682C171.668 491.437 171.235 491.099 170.916 490.671C170.601 490.239 170.439 489.741 170.429 489.177L172.491 489.177C172.503 489.413 172.58 489.621 172.722 489.801C172.867 489.977 173.059 490.114 173.299 490.212C173.538 490.31 173.808 490.359 174.107 490.359C174.419 490.359 174.695 490.304 174.935 490.193C175.174 490.083 175.362 489.93 175.497 489.735C175.633 489.539 175.701 489.314 175.701 489.059C175.701 488.8 175.628 488.572 175.483 488.373C175.341 488.171 175.136 488.014 174.869 487.9C174.604 487.787 174.289 487.73 173.923 487.73L173.02 487.73L173.02 486.227L173.923 486.227C174.232 486.227 174.504 486.173 174.741 486.066C174.98 485.959 175.166 485.811 175.299 485.622C175.431 485.429 175.497 485.206 175.497 484.95C175.497 484.708 175.439 484.495 175.322 484.312C175.209 484.126 175.048 483.981 174.84 483.877C174.635 483.773 174.396 483.721 174.122 483.721C173.844 483.721 173.59 483.772 173.36 483.872C173.13 483.97 172.946 484.11 172.807 484.293C172.669 484.476 172.595 484.69 172.585 484.936L170.623 484.936C170.633 484.378 170.792 483.887 171.101 483.461C171.409 483.036 171.826 482.703 172.349 482.464C172.875 482.221 173.469 482.1 174.131 482.1C174.799 482.1 175.384 482.221 175.885 482.464C176.386 482.706 176.775 483.034 177.053 483.447C177.333 483.857 177.472 484.317 177.469 484.827C177.472 485.369 177.303 485.822 176.963 486.184C176.626 486.547 176.186 486.777 175.644 486.874L175.644 486.95C176.356 487.041 176.898 487.289 177.27 487.692C177.645 488.093 177.831 488.594 177.828 489.196C177.831 489.747 177.672 490.237 177.351 490.666C177.032 491.095 176.593 491.432 176.032 491.678C175.47 491.924 174.828 492.046 174.103 492.046Z" fill="#2B85F0"/>
<path d="M23.343 291.203L27.3567 283.261V283.195H22.6811V281.521H29.4747V283.218L25.4562 291.203H23.343Z" fill="#2B85F0"/>
<path d="M91.7644 244.666H44.1508" stroke="#153A61" stroke-width="0.665645" stroke-dasharray="2.66 2.66"/>
<path d="M113.74 157.495L44.1511 157.495" stroke="#153A61" stroke-width="0.665645" stroke-dasharray="2.66 2.66"/>
<path d="M44.1506 244.822L44.1506 158.385" stroke="#153A61" stroke-width="0.665645"/>
<path d="M30.8585 196.337C31.3565 196.337 31.8355 196.42 32.2957 196.587C32.759 196.754 33.1718 197.021 33.5343 197.386C33.8999 197.752 34.1883 198.237 34.3994 198.843C34.6138 199.444 34.7225 200.184 34.7257 201.06C34.7257 201.882 34.6327 202.617 34.4467 203.263C34.2639 203.906 34.0008 204.453 33.6572 204.903C33.3137 205.354 32.8992 205.698 32.4139 205.934C31.9285 206.167 31.3864 206.284 30.7876 206.284C30.1415 206.284 29.571 206.159 29.0762 205.91C28.5814 205.658 28.1827 205.316 27.8801 204.884C27.5807 204.449 27.3995 203.961 27.3364 203.419H29.3551C29.4339 203.772 29.5994 204.046 29.8515 204.241C30.1036 204.434 30.4157 204.53 30.7876 204.53C31.4179 204.53 31.897 204.256 32.2248 203.707C32.5525 203.156 32.718 202.401 32.7212 201.443H32.655C32.51 201.726 32.3146 201.971 32.0687 202.175C31.8229 202.377 31.5408 202.533 31.2225 202.643C30.9073 202.754 30.5717 202.809 30.2155 202.809C29.6451 202.809 29.1361 202.675 28.6885 202.407C28.241 202.139 27.888 201.77 27.6295 201.301C27.3711 200.831 27.2419 200.295 27.2419 199.693C27.2387 199.044 27.3884 198.466 27.691 197.958C27.9936 197.451 28.4159 197.054 28.958 196.767C29.5032 196.477 30.1367 196.334 30.8585 196.337ZM30.8727 197.944C30.5543 197.944 30.2707 198.02 30.0217 198.171C29.7759 198.322 29.5805 198.526 29.4355 198.781C29.2936 199.036 29.2243 199.322 29.2275 199.637C29.2275 199.955 29.2968 200.242 29.4355 200.497C29.5773 200.749 29.7696 200.951 30.0122 201.102C30.2581 201.25 30.5386 201.324 30.8538 201.324C31.0901 201.324 31.3092 201.28 31.5109 201.192C31.7126 201.104 31.8875 200.983 32.0357 200.828C32.1869 200.671 32.3051 200.489 32.3902 200.284C32.4753 200.08 32.5179 199.862 32.5179 199.632C32.5147 199.326 32.4422 199.046 32.3004 198.791C32.1586 198.535 31.9632 198.33 31.7142 198.176C31.4652 198.021 31.1847 197.944 30.8727 197.944Z" fill="#2B85F0"/>
<path d="M116.67 98.7354L44.151 98.7354" stroke="#153A61" stroke-width="0.665645" stroke-dasharray="2.66 2.66"/>
<path d="M116.67 147.083L44.151 147.083" stroke="#153A61" stroke-width="0.665645" stroke-dasharray="2.66 2.66"/>
<path d="M44.1506 147.083L44.1506 99.4694" stroke="#153A61" stroke-width="0.665645"/>
<path d="M36.7517 122.985C36.0835 122.985 35.4878 122.862 34.9647 122.616C34.4446 122.37 34.0317 122.032 33.726 121.6C33.4203 121.168 33.2611 120.673 33.2485 120.115H35.2341C35.2562 120.49 35.4138 120.794 35.7069 121.028C36 121.261 36.3483 121.378 36.7517 121.378C37.0732 121.378 37.3568 121.307 37.6026 121.165C37.8516 121.02 38.0455 120.82 38.1841 120.564C38.326 120.306 38.3969 120.01 38.3969 119.676C38.3969 119.335 38.3244 119.036 38.1794 118.777C38.0376 118.519 37.8406 118.317 37.5885 118.172C37.3363 118.027 37.0479 117.953 36.7233 117.95C36.4397 117.95 36.1639 118.008 35.896 118.125C35.6312 118.242 35.4248 118.401 35.2767 118.602L33.4566 118.276L33.9151 113.17H39.8341V114.844H35.6029L35.3523 117.269H35.409C35.5792 117.03 35.8361 116.831 36.1796 116.674C36.5232 116.516 36.9077 116.437 37.3332 116.437C37.9162 116.437 38.4363 116.574 38.8933 116.848C39.3503 117.123 39.7112 117.499 39.9759 117.978C40.2406 118.454 40.3714 119.003 40.3683 119.624C40.3714 120.276 40.2202 120.856 39.9144 121.363C39.6119 121.868 39.188 122.265 38.6427 122.555C38.1006 122.842 37.4703 122.985 36.7517 122.985Z" fill="#2B85F0"/>
<path d="M115.807 15.7456V25.4277H113.76V17.6887H113.703L111.486 19.0786V17.2632L113.883 15.7456H115.807Z" fill="#2B85F0"/>
<path d="M235.338 132.432L235.338 37.2044" stroke="#153A61" stroke-width="0.665645" stroke-dasharray="2.66 2.66"/>
<path d="M225.815 132.432L225.815 37.2044" stroke="#153A61" stroke-width="0.665645" stroke-dasharray="2.66 2.66"/>
<path d="M235.338 37.2041L225.815 37.2041" stroke="#153A61" stroke-width="0.665645"/>
<path d="M232.277 15.7456V25.4277H230.23V17.6887H230.173L227.956 19.0786V17.2632L230.353 15.7456H232.277Z" fill="#2B85F0"/>
<path d="M210.543 95.0742L210.543 37.2054" stroke="#153A61" stroke-width="0.665645" stroke-dasharray="2.66 2.66"/>
<path d="M134.983 95.0742L134.983 37.2054" stroke="#153A61" stroke-width="0.665645" stroke-dasharray="2.66 2.66"/>
<path d="M210.543 37.2041L134.997 37.2041" stroke="#153A61" stroke-width="0.665645"/>
<path d="M167.649 30.4277L171.662 22.4854V22.4192H166.987V20.7456H173.78V22.4428L169.762 30.4277H167.649ZM174.715 30.5507C174.403 30.5507 174.135 30.4403 173.912 30.2197C173.691 29.9959 173.581 29.7281 173.581 29.416C173.581 29.1072 173.691 28.8424 173.912 28.6218C174.135 28.4012 174.403 28.2909 174.715 28.2909C175.018 28.2909 175.283 28.4012 175.509 28.6218C175.736 28.8424 175.85 29.1072 175.85 29.416C175.85 29.624 175.796 29.8147 175.689 29.9881C175.585 30.1583 175.448 30.2954 175.278 30.3994C175.108 30.5002 174.92 30.5507 174.715 30.5507ZM180.943 30.5601C180.274 30.5601 179.679 30.4372 179.156 30.1914C178.636 29.9455 178.223 29.6067 177.917 29.1749C177.611 28.7431 177.452 28.2483 177.44 27.6905H179.425C179.447 28.0655 179.605 28.3697 179.898 28.6029C180.191 28.8361 180.539 28.9527 180.943 28.9527C181.264 28.9527 181.548 28.8818 181.794 28.74C182.043 28.595 182.236 28.3949 182.375 28.1396C182.517 27.8811 182.588 27.5849 182.588 27.2508C182.588 26.9104 182.515 26.611 182.37 26.3526C182.229 26.0941 182.032 25.8924 181.779 25.7474C181.527 25.6024 181.239 25.5284 180.914 25.5252C180.631 25.5252 180.355 25.5835 180.087 25.7001C179.822 25.8168 179.616 25.9759 179.468 26.1776L177.648 25.8514L178.106 20.7456H184.025V22.4192H179.794L179.543 24.8444H179.6C179.77 24.6049 180.027 24.4064 180.371 24.2488C180.714 24.0912 181.099 24.0124 181.524 24.0124C182.107 24.0124 182.627 24.1495 183.084 24.4237C183.541 24.6979 183.902 25.0745 184.167 25.5536C184.432 26.0295 184.562 26.5779 184.559 27.1988C184.562 27.8512 184.411 28.4311 184.105 28.9385C183.803 29.4428 183.379 29.8399 182.834 30.1299C182.292 30.4167 181.661 30.5601 180.943 30.5601Z" fill="#2B85F0"/>
</g>
<defs>
<clipPath id="clip0_2303_8437">
<rect width="345" height="492" fill="white"/>
</clipPath>
<clipPath id="clip1_2303_8437">
<rect width="326.922" height="483.963" fill="white" transform="translate(-11.9609 11)"/>
</clipPath>
</defs>
</svg>
