<svg width="345" height="492" viewBox="0 0 345 492" fill="none" xmlns="http://www.w3.org/2000/svg">
<rect width="345" height="492" fill="white"/>
<path d="M235.389 99.0791H225.723V157.21H235.389V99.0791Z" fill="#6CC9FF"/>
<path d="M230.55 166.903C218.6 166.903 208.633 175.389 206.354 186.662V206.133H254.796V186.98C252.642 175.546 242.604 166.903 230.55 166.903Z" fill="#6CC9FF"/>
<path d="M208.694 95.3275L186.086 111.15L194.671 137.833L172.511 121.553L149.899 137.833L158.95 111.15L135.436 95.3275H163.02L172.511 70L181.105 95.3275H208.694Z" fill="#6CC9FF"/>
<path d="M237.385 215.297H206.354V254.064H254.796V215.297H237.385ZM225.264 229.962V244.367H216.051V229.962C216.051 228.221 217.007 226.713 218.429 225.932C218.595 225.834 218.766 225.748 218.95 225.69C219.174 225.591 219.403 225.515 219.646 225.466C219.973 225.389 220.305 225.349 220.651 225.349C220.996 225.349 221.328 225.389 221.656 225.466C223.321 225.834 224.654 227.108 225.089 228.741C225.188 229.069 225.241 229.397 225.255 229.747C225.264 229.747 225.264 229.756 225.264 229.756V229.958V229.962ZM235.89 244.394V229.962C235.89 227.418 237.959 225.349 240.503 225.349C243.048 225.349 245.117 227.418 245.117 229.962V244.394H235.895H235.89Z" fill="#6CC9FF"/>
<path d="M189.833 216.889L189.564 215.382L177.277 147.521H167.602L155.777 212.559L154.983 216.903L153.861 223.069L177.192 238.757L177.277 254.149H196.582L189.833 216.889Z" fill="#6CC9FF"/>
<path d="M223.128 264.233H157.902V322.14H167.658C168.529 301.561 180.062 283.741 196.881 274.083C205.425 269.161 215.334 266.36 225.893 266.36C232.426 266.36 238.722 267.433 244.588 269.425C244.938 269.542 245.283 269.668 245.633 269.793C247.617 270.498 249.537 271.31 251.404 272.239C252.176 272.607 252.93 272.993 253.675 273.401C254.052 273.594 254.429 273.796 254.797 274.012V264.238H223.128V264.233Z" fill="#6CC9FF"/>
<path d="M282.94 331.581C282.967 330.809 282.989 330.033 282.989 329.252C282.989 328.884 282.98 328.516 282.971 328.162C282.953 327.475 282.931 326.797 282.904 326.12C281.8 306.99 270.725 290.534 254.803 281.882C249.952 279.243 244.653 277.327 239.057 276.286C234.502 274.863 229.651 274.101 224.625 274.101C216.444 274.101 208.73 276.12 201.976 279.705C192.745 284.588 185.283 292.36 180.786 301.824C180.652 302.103 180.526 302.376 180.391 302.655V302.664C178.157 307.604 176.739 312.98 176.272 318.626C176.173 319.788 176.119 320.955 176.119 322.135C176.11 322.301 176.11 322.463 176.11 322.629C176.11 324.657 176.236 326.667 176.478 328.633C176.469 328.75 176.469 328.875 176.469 328.992C176.469 329.862 176.51 330.733 176.595 331.581C176.68 332.559 176.828 333.515 177.012 334.462C177.766 338.115 179.247 341.508 181.302 344.478C181.823 345.241 182.384 345.986 182.994 346.691C186.53 350.837 191.287 353.902 196.703 355.343C198.947 355.944 201.303 356.262 203.731 356.262C208.528 356.262 213.029 355.024 216.947 352.838C217.97 352.278 218.966 351.64 219.904 350.954C220.631 350.411 221.335 349.841 222 349.235C222.3 348.975 222.587 348.705 222.87 348.414C225.818 345.129 227.609 340.785 227.609 336.019C227.609 335.602 227.6 335.198 227.569 334.79V334.781C227.627 334.345 227.654 333.901 227.654 333.448C227.654 332.811 227.595 332.191 227.479 331.581C227.151 329.822 226.357 328.224 225.235 326.923C224.297 325.833 223.139 324.953 221.811 324.343C220.537 323.755 219.114 323.423 217.615 323.423C212.715 323.423 208.636 326.932 207.765 331.581H199.867C200.069 328.081 201.249 324.841 203.143 322.135C204.431 320.291 206.042 318.693 207.9 317.437C210.839 315.435 214.389 314.264 218.217 314.264C218.746 314.264 219.271 314.282 219.783 314.331C222.942 314.6 225.872 315.664 228.376 317.329C230.292 318.594 231.953 320.219 233.268 322.104C233.277 322.112 233.277 322.121 233.277 322.13H233.286C234.87 325.002 235.974 328.193 236.458 331.577C236.517 331.913 236.557 332.263 236.593 332.622V332.64C236.701 333.627 236.759 334.633 236.759 335.647C236.759 339.407 236.014 342.993 234.663 346.273C231.298 352.713 226.02 357.99 219.572 361.342C219.137 361.567 218.692 361.787 218.248 361.989C213.675 364.134 208.582 365.332 203.197 365.332C202.627 365.332 202.066 365.323 201.505 365.291C200.527 365.242 199.553 365.157 198.597 365.04C195.407 364.623 192.351 363.784 189.483 362.576C187.984 361.957 186.544 361.221 185.162 360.409C179.534 357.075 174.903 352.242 171.838 346.457C171.134 344.725 170.514 342.957 169.994 341.149C169.123 338.209 168.477 335.167 168.078 332.052C168.06 331.886 168.037 331.734 168.019 331.568H117.885C124.45 336.033 129.696 342.27 132.967 349.59C135.328 354.867 136.643 360.705 136.67 366.853V367.037C136.768 381.635 148.629 393.437 163.245 393.437C166.669 393.437 169.935 392.791 172.942 391.602C173.714 391.216 174.508 390.857 175.32 390.538C175.329 390.538 175.338 390.538 175.338 390.529C178.762 389.187 182.483 388.442 186.387 388.442C187.944 388.442 189.47 388.559 190.959 388.792C192.032 388.958 193.087 389.169 194.119 389.448C196.138 389.977 198.063 390.713 199.89 391.633C200.527 391.952 201.155 392.302 201.765 392.656C202.268 392.957 202.762 393.275 203.246 393.594C207.258 396.309 210.583 399.975 212.903 404.256L212.93 404.238C216.363 411.342 223.633 416.256 232.052 416.256C236.974 416.256 241.507 414.573 245.101 411.751C245.756 411.199 246.407 410.629 247.044 410.041C247.053 410.041 247.053 410.032 247.062 410.023C252.156 405.41 256.827 400.325 260.992 394.837C266.677 387.383 271.443 379.185 275.127 370.416C277.932 363.766 280.104 356.796 281.585 349.572C282.231 345.452 282.666 341.256 282.882 337.002C282.967 335.203 283.007 333.385 283.016 331.568H282.949L282.94 331.581Z" fill="#6CC9FF"/>
<path d="M254.794 274.007C254.426 273.796 254.049 273.589 253.672 273.396C254.049 273.598 254.426 273.8 254.794 274.016V274.007Z" fill="#6CC9FF"/>
<path d="M148.377 253.239V254.15H148.211L148.377 253.239Z" fill="#6CC9FF"/>
<path d="M151.89 233.956L148.381 231.613L138.522 225.039L137.167 221.261L135.098 215.472L114.285 157.206L90.2047 225.039L61 244.425H80.2066L97.829 244.416L148.381 244.403H149.987H167.569L151.89 233.956Z" fill="#6CC9FF"/>
<path d="M119.05 99.0879H109.613V147.54H119.05V99.0879Z" fill="#6CC9FF"/>
<path d="M95.8673 254.468H80.3809V263.448H90.0784V273.531H80.3809V283.081H90.0784V292.778H80.3809V302.444H90.0784V312.178H80.3809V322.136H148.38V254.464H95.8673V254.468ZM123.73 302.803C115.985 302.803 109.711 296.53 109.711 288.784C109.711 281.039 115.985 274.765 123.73 274.765C131.476 274.765 137.749 281.039 137.749 288.784C137.749 296.53 131.467 302.803 123.73 302.803Z" fill="#6CC9FF"/>
<path d="M216.432 420.542C211.24 417.863 206.91 413.748 203.97 408.708C203.944 408.659 203.912 408.61 203.885 408.556C202.175 405.464 199.707 402.852 196.732 400.967C193.456 398.858 189.561 397.651 185.383 397.651C182.462 397.651 179.68 398.239 177.158 399.316L177.14 399.267C172.953 401.026 168.353 402.004 163.529 402.004C162.775 402.004 162.021 401.986 161.276 401.928C149.173 401.165 138.74 394.272 133.036 384.323C130.281 379.499 128.63 373.948 128.437 368.042C128.486 367.289 128.513 366.526 128.513 365.763C128.513 365.386 128.504 365.018 128.495 364.65C127.952 347.566 114.97 333.628 98.303 331.586H61.0566C61.124 334.032 61.281 336.45 61.5189 338.847C61.8868 342.76 62.4747 346.619 63.26 350.398C67.0879 368.922 75.6321 385.741 87.6496 399.594C90.764 403.18 94.1162 406.572 97.6748 409.745C105.797 416.974 115.019 423.068 125.08 427.735C136.806 433.188 149.685 436.724 163.305 437.935C166.311 438.214 169.358 438.371 172.441 438.411C174.093 438.429 175.726 438.411 177.364 438.353C184.468 438.128 191.41 437.222 198.11 435.674C203.553 434.435 208.848 432.775 213.955 430.733C218.865 428.781 223.612 426.47 228.145 423.84C223.949 423.531 219.995 422.382 216.437 420.542H216.432Z" fill="#6CC9FF"/>
<path d="M217.184 367.826C217.341 367.826 217.469 367.77 217.469 367.701C217.469 367.632 217.341 367.576 217.184 367.576C217.026 367.576 216.898 367.632 216.898 367.701C216.898 367.77 217.026 367.826 217.184 367.826Z" fill="#706F6F"/>
<path d="M254.267 273.934C253.902 273.724 253.528 273.52 253.154 273.328C253.528 273.528 253.902 273.729 254.267 273.942V273.934Z" fill="white"/>
<path d="M148.698 253.332V254.236H148.533L148.698 253.332Z" fill="white"/>
<path d="M214.075 374.588C214.245 374.588 214.383 374.528 214.383 374.454C214.383 374.38 214.245 374.32 214.075 374.32C213.906 374.32 213.768 374.38 213.768 374.454C213.768 374.528 213.906 374.588 214.075 374.588Z" fill="#706F6F"/>
<path d="M62.9989 237.094C62.6414 237.094 62.323 237.033 62.0437 236.91C61.766 236.786 61.5466 236.615 61.3854 236.398C61.2258 236.179 61.1436 235.927 61.1388 235.641H62.1826C62.1889 235.761 62.228 235.866 62.2999 235.957C62.3733 236.047 62.4706 236.116 62.5919 236.166C62.7132 236.215 62.8497 236.24 63.0013 236.24C63.1593 236.24 63.2989 236.212 63.4202 236.156C63.5415 236.1 63.6365 236.023 63.7051 235.924C63.7737 235.825 63.808 235.711 63.808 235.581C63.808 235.451 63.7713 235.335 63.6979 235.234C63.6261 235.132 63.5224 235.052 63.3867 234.995C63.2526 234.937 63.093 234.909 62.9079 234.909H62.4507V234.147H62.9079C63.0643 234.147 63.2024 234.12 63.3221 234.066C63.4434 234.012 63.5375 233.937 63.6045 233.841C63.6716 233.744 63.7051 233.63 63.7051 233.501C63.7051 233.378 63.6756 233.27 63.6165 233.178C63.5591 233.084 63.4777 233.01 63.3723 232.958C63.2686 232.905 63.1473 232.879 63.0085 232.879C62.868 232.879 62.7395 232.904 62.623 232.955C62.5065 233.005 62.4132 233.076 62.343 233.168C62.2727 233.261 62.2352 233.369 62.2304 233.494H61.237C61.2418 233.211 61.3224 232.962 61.4788 232.747C61.6352 232.532 61.8458 232.363 62.1107 232.242C62.3773 232.119 62.6781 232.058 63.0133 232.058C63.3516 232.058 63.6476 232.119 63.9014 232.242C64.1551 232.365 64.3522 232.531 64.4927 232.74C64.6347 232.947 64.705 233.18 64.7034 233.439C64.705 233.713 64.6196 233.942 64.4472 234.126C64.2764 234.309 64.0538 234.426 63.7793 234.475V234.514C64.14 234.56 64.4145 234.685 64.6028 234.89C64.7927 235.092 64.8869 235.346 64.8853 235.651C64.8869 235.93 64.8063 236.178 64.6435 236.395C64.4823 236.612 64.2597 236.783 63.9756 236.908C63.6915 237.032 63.366 237.094 62.9989 237.094ZM67.421 237.094C67.0827 237.094 66.7811 237.032 66.5161 236.908C66.2528 236.783 66.0437 236.612 65.8889 236.393C65.7341 236.174 65.6535 235.924 65.6472 235.641H66.6526C66.6638 235.831 66.7436 235.985 66.892 236.103C67.0404 236.221 67.2168 236.28 67.421 236.28C67.5838 236.28 67.7275 236.245 67.852 236.173C67.978 236.099 68.0762 235.998 68.1464 235.869C68.2182 235.738 68.2541 235.588 68.2541 235.419C68.2541 235.246 68.2174 235.095 68.144 234.964C68.0722 234.833 67.9724 234.731 67.8448 234.657C67.7171 234.584 67.5711 234.546 67.4067 234.545C67.263 234.545 67.1234 234.574 66.9877 234.633C66.8537 234.692 66.7492 234.773 66.6741 234.875L65.7525 234.71L65.9847 232.125H68.9819V232.972H66.8393L66.7124 234.2H66.7412C66.8274 234.079 66.9574 233.978 67.1314 233.898C67.3053 233.819 67.5 233.779 67.7155 233.779C68.0107 233.779 68.2741 233.848 68.5055 233.987C68.7369 234.126 68.9196 234.317 69.0537 234.559C69.1878 234.8 69.254 235.078 69.2524 235.392C69.254 235.723 69.1774 236.016 69.0226 236.273C68.8694 236.529 68.6547 236.73 68.3786 236.877C68.1041 237.022 67.7849 237.094 67.421 237.094ZM71.1268 234.444C70.9098 234.444 70.7119 234.392 70.5331 234.286C70.356 234.179 70.2147 234.037 70.1094 233.86C70.0041 233.681 69.9514 233.484 69.9514 233.267C69.9514 233.051 70.0041 232.855 70.1094 232.678C70.2147 232.499 70.356 232.357 70.5331 232.251C70.7119 232.145 70.9098 232.091 71.1268 232.091C71.3439 232.091 71.541 232.145 71.7181 232.251C71.8969 232.357 72.0389 232.499 72.1442 232.678C72.2496 232.855 72.3022 233.051 72.3022 233.267C72.3022 233.484 72.2496 233.681 72.1442 233.86C72.0389 234.037 71.8969 234.179 71.7181 234.286C71.541 234.392 71.3439 234.444 71.1268 234.444ZM71.1268 233.764C71.2194 233.764 71.3032 233.742 71.3782 233.697C71.4532 233.653 71.5122 233.593 71.5553 233.518C71.6 233.443 71.6224 233.359 71.6224 233.267C71.6224 233.176 71.6 233.093 71.5553 233.018C71.5122 232.943 71.4532 232.883 71.3782 232.838C71.3032 232.793 71.2194 232.771 71.1268 232.771C71.0359 232.771 70.9529 232.793 70.8779 232.838C70.8028 232.883 70.743 232.943 70.6983 233.018C70.6536 233.093 70.6313 233.176 70.6313 233.267C70.6313 233.359 70.6536 233.443 70.6983 233.518C70.743 233.593 70.8028 233.653 70.8779 233.697C70.9529 233.742 71.0359 233.764 71.1268 233.764Z" fill="#2B85F0"/>
<path d="M147.296 242.299C146.939 242.299 146.621 242.238 146.341 242.115C146.064 241.991 145.844 241.82 145.683 241.603C145.523 241.384 145.441 241.132 145.436 240.846H146.48C146.487 240.966 146.526 241.071 146.597 241.162C146.671 241.252 146.768 241.321 146.89 241.371C147.011 241.42 147.147 241.445 147.299 241.445C147.457 241.445 147.597 241.417 147.718 241.361C147.839 241.305 147.934 241.228 148.003 241.129C148.071 241.03 148.106 240.916 148.106 240.786C148.106 240.656 148.069 240.54 147.996 240.439C147.924 240.337 147.82 240.257 147.684 240.2C147.55 240.143 147.391 240.114 147.206 240.114H146.748V239.353H147.206C147.362 239.353 147.5 239.325 147.62 239.271C147.741 239.217 147.835 239.142 147.902 239.046C147.969 238.949 148.003 238.835 148.003 238.706C148.003 238.583 147.973 238.476 147.914 238.383C147.857 238.289 147.775 238.215 147.67 238.163C147.566 238.11 147.445 238.084 147.306 238.084C147.166 238.084 147.037 238.109 146.921 238.16C146.804 238.21 146.711 238.281 146.641 238.373C146.57 238.466 146.533 238.575 146.528 238.699H145.535C145.539 238.417 145.62 238.168 145.776 237.952C145.933 237.737 146.143 237.568 146.408 237.447C146.675 237.324 146.976 237.263 147.311 237.263C147.649 237.263 147.945 237.324 148.199 237.447C148.453 237.57 148.65 237.736 148.79 237.945C148.932 238.152 149.003 238.385 149.001 238.644C149.003 238.918 148.917 239.147 148.745 239.331C148.574 239.515 148.351 239.631 148.077 239.681V239.719C148.438 239.765 148.712 239.89 148.9 240.095C149.09 240.297 149.184 240.551 149.183 240.856C149.184 241.135 149.104 241.383 148.941 241.6C148.78 241.817 148.557 241.988 148.273 242.113C147.989 242.237 147.664 242.299 147.296 242.299ZM151.719 242.299C151.38 242.299 151.079 242.237 150.814 242.113C150.55 241.988 150.341 241.817 150.187 241.598C150.032 241.379 149.951 241.129 149.945 240.846H150.95C150.961 241.036 151.041 241.19 151.19 241.308C151.338 241.426 151.514 241.486 151.719 241.486C151.881 241.486 152.025 241.45 152.15 241.378C152.276 241.304 152.374 241.203 152.444 241.074C152.516 240.943 152.552 240.793 152.552 240.624C152.552 240.451 152.515 240.3 152.442 240.169C152.37 240.038 152.27 239.936 152.142 239.862C152.015 239.789 151.869 239.752 151.704 239.75C151.561 239.75 151.421 239.779 151.285 239.839C151.151 239.898 151.047 239.978 150.972 240.08L150.05 239.915L150.282 237.33H153.279V238.177H151.137L151.01 239.405H151.039C151.125 239.284 151.255 239.183 151.429 239.104C151.603 239.024 151.798 238.984 152.013 238.984C152.308 238.984 152.572 239.053 152.803 239.192C153.035 239.331 153.217 239.522 153.351 239.764C153.485 240.005 153.552 240.283 153.55 240.597C153.552 240.928 153.475 241.221 153.32 241.478C153.167 241.734 152.952 241.935 152.676 242.082C152.402 242.227 152.083 242.299 151.719 242.299ZM155.424 239.649C155.207 239.649 155.009 239.597 154.831 239.491C154.654 239.384 154.512 239.242 154.407 239.065C154.302 238.887 154.249 238.689 154.249 238.472C154.249 238.256 154.302 238.06 154.407 237.883C154.512 237.704 154.654 237.562 154.831 237.457C155.009 237.35 155.207 237.296 155.424 237.296C155.641 237.296 155.839 237.35 156.016 237.457C156.194 237.562 156.337 237.704 156.442 237.883C156.547 238.06 156.6 238.256 156.6 238.472C156.6 238.689 156.547 238.887 156.442 239.065C156.337 239.242 156.194 239.384 156.016 239.491C155.839 239.597 155.641 239.649 155.424 239.649ZM155.424 238.97C155.517 238.97 155.601 238.947 155.676 238.902C155.751 238.858 155.81 238.798 155.853 238.723C155.898 238.648 155.92 238.564 155.92 238.472C155.92 238.381 155.898 238.298 155.853 238.223C155.81 238.148 155.751 238.088 155.676 238.043C155.601 237.998 155.517 237.976 155.424 237.976C155.333 237.976 155.25 237.998 155.175 238.043C155.1 238.088 155.041 238.148 154.996 238.223C154.951 238.298 154.929 238.381 154.929 238.472C154.929 238.564 154.951 238.648 154.996 238.723C155.041 238.798 155.1 238.858 155.175 238.902C155.25 238.947 155.333 238.97 155.424 238.97Z" fill="#2B85F0"/>
<path d="M76.8526 214.433V219.336H75.8161V215.417H75.7873L74.6646 216.121V215.202L75.8783 214.433H76.8526ZM77.9437 218.474V217.658L79.9905 214.433H80.6943V215.563H80.2777L78.9874 217.605V217.643H81.896V218.474H77.9437ZM80.2969 219.336V218.225L80.316 217.864V214.433H81.288V219.336H80.2969ZM84.3773 219.403C84.039 219.403 83.7373 219.341 83.4724 219.216C83.2091 219.092 83 218.92 82.8452 218.702C82.6904 218.483 82.6098 218.232 82.6034 217.95H83.6089C83.62 218.14 83.6998 218.294 83.8482 218.412C83.9967 218.53 84.173 218.589 84.3773 218.589C84.5401 218.589 84.6837 218.553 84.8082 218.481C84.9343 218.408 85.0324 218.307 85.1027 218.177C85.1745 218.046 85.2104 217.896 85.2104 217.727C85.2104 217.555 85.1737 217.403 85.1003 217.272C85.0284 217.142 84.9287 217.039 84.801 216.966C84.6733 216.893 84.5273 216.855 84.3629 216.853C84.2193 216.853 84.0797 216.883 83.944 216.942C83.8099 217.001 83.7054 217.082 83.6304 217.184L82.7087 217.019L82.941 214.433H85.9381V215.281H83.7956L83.6687 216.509H83.6974C83.7836 216.387 83.9137 216.287 84.0876 216.207C84.2616 216.127 84.4563 216.087 84.6718 216.087C84.967 216.087 85.2303 216.157 85.4617 216.296C85.6932 216.435 85.8759 216.625 86.01 216.868C86.144 217.109 86.2102 217.386 86.2086 217.701C86.2102 218.031 86.1336 218.325 85.9788 218.582C85.8256 218.837 85.611 219.038 85.3349 219.185C85.0604 219.33 84.7412 219.403 84.3773 219.403ZM88.0831 216.753C87.866 216.753 87.6681 216.7 87.4894 216.595C87.3122 216.488 87.171 216.346 87.0657 216.169C86.9603 215.99 86.9077 215.792 86.9077 215.575C86.9077 215.36 86.9603 215.163 87.0657 214.986C87.171 214.807 87.3122 214.665 87.4894 214.56C87.6681 214.453 87.866 214.4 88.0831 214.4C88.3001 214.4 88.4972 214.453 88.6744 214.56C88.8531 214.665 88.9952 214.807 89.1005 214.986C89.2058 215.163 89.2585 215.36 89.2585 215.575C89.2585 215.792 89.2058 215.99 89.1005 216.169C88.9952 216.346 88.8531 216.488 88.6744 216.595C88.4972 216.7 88.3001 216.753 88.0831 216.753ZM88.0831 216.073C88.1756 216.073 88.2594 216.051 88.3344 216.006C88.4095 215.961 88.4685 215.901 88.5116 215.826C88.5563 215.751 88.5786 215.668 88.5786 215.575C88.5786 215.484 88.5563 215.401 88.5116 215.326C88.4685 215.251 88.4095 215.191 88.3344 215.147C88.2594 215.102 88.1756 215.08 88.0831 215.08C87.9921 215.08 87.9091 215.102 87.8341 215.147C87.7591 215.191 87.6993 215.251 87.6546 215.326C87.6099 215.401 87.5875 215.484 87.5875 215.575C87.5875 215.668 87.6099 215.751 87.6546 215.826C87.6993 215.901 87.7591 215.961 87.8341 216.006C87.9091 216.051 87.9921 216.073 88.0831 216.073Z" fill="#2B85F0"/>
<path d="M110.028 179.97V179.154L112.075 175.929H112.778V177.059H112.362L111.072 179.101V179.14H113.98V179.97H110.028ZM112.381 180.832V179.721L112.4 179.36V175.929H113.372V180.832H112.381ZM116.593 180.94C116.181 180.938 115.827 180.837 115.53 180.636C115.235 180.435 115.008 180.143 114.848 179.762C114.69 179.381 114.612 178.922 114.613 178.385C114.613 177.851 114.692 177.395 114.85 177.019C115.01 176.642 115.237 176.355 115.533 176.159C115.829 175.961 116.183 175.862 116.593 175.862C117.003 175.862 117.356 175.961 117.651 176.159C117.948 176.357 118.176 176.644 118.336 177.021C118.495 177.396 118.574 177.851 118.573 178.385C118.573 178.923 118.493 179.383 118.333 179.764C118.175 180.146 117.949 180.437 117.654 180.638C117.358 180.839 117.005 180.94 116.593 180.94ZM116.593 180.08C116.874 180.08 117.098 179.939 117.266 179.657C117.433 179.374 117.516 178.95 117.515 178.385C117.515 178.014 117.476 177.704 117.4 177.457C117.325 177.209 117.218 177.023 117.079 176.899C116.942 176.774 116.78 176.712 116.593 176.712C116.314 176.712 116.09 176.852 115.923 177.131C115.755 177.41 115.671 177.828 115.669 178.385C115.669 178.762 115.707 179.076 115.782 179.329C115.858 179.579 115.966 179.768 116.105 179.894C116.244 180.018 116.406 180.08 116.593 180.08ZM120.463 178.249C120.246 178.249 120.048 178.196 119.87 178.091C119.693 177.984 119.551 177.842 119.446 177.665C119.341 177.486 119.288 177.288 119.288 177.071C119.288 176.856 119.341 176.659 119.446 176.482C119.551 176.304 119.693 176.162 119.87 176.056C120.048 175.949 120.246 175.896 120.463 175.896C120.68 175.896 120.878 175.949 121.055 176.056C121.233 176.162 121.376 176.304 121.481 176.482C121.586 176.659 121.639 176.856 121.639 177.071C121.639 177.288 121.586 177.486 121.481 177.665C121.376 177.842 121.233 177.984 121.055 178.091C120.878 178.196 120.68 178.249 120.463 178.249ZM120.463 177.569C120.556 177.569 120.64 177.547 120.715 177.502C120.79 177.457 120.849 177.398 120.892 177.323C120.937 177.248 120.959 177.164 120.959 177.071C120.959 176.98 120.937 176.897 120.892 176.822C120.849 176.747 120.79 176.687 120.715 176.643C120.64 176.598 120.556 176.576 120.463 176.576C120.372 176.576 120.289 176.598 120.214 176.643C120.139 176.687 120.08 176.747 120.035 176.822C119.99 176.897 119.968 176.98 119.968 177.071C119.968 177.164 119.99 177.248 120.035 177.323C120.08 177.398 120.139 177.457 120.214 177.502C120.289 177.547 120.372 177.569 120.463 177.569Z" fill="#2B85F0"/>
<path d="M169.474 154.074V158.977H168.437V155.058H168.408L167.286 155.762V154.842L168.499 154.074H169.474ZM172.561 159.084C172.15 159.083 171.795 158.981 171.498 158.78C171.203 158.579 170.976 158.288 170.816 157.906C170.658 157.525 170.58 157.066 170.582 156.53C170.582 155.995 170.661 155.54 170.819 155.163C170.978 154.786 171.206 154.5 171.501 154.304C171.798 154.106 172.151 154.007 172.561 154.007C172.971 154.007 173.324 154.106 173.619 154.304C173.916 154.502 174.144 154.789 174.304 155.165C174.464 155.54 174.543 155.995 174.541 156.53C174.541 157.068 174.461 157.527 174.302 157.909C174.144 158.29 173.917 158.582 173.622 158.783C173.327 158.984 172.973 159.084 172.561 159.084ZM172.561 158.225C172.842 158.225 173.066 158.084 173.234 157.801C173.402 157.519 173.485 157.095 173.483 156.53C173.483 156.158 173.445 155.849 173.368 155.601C173.293 155.354 173.186 155.168 173.047 155.043C172.91 154.919 172.748 154.857 172.561 154.857C172.282 154.857 172.059 154.996 171.891 155.276C171.723 155.555 171.639 155.973 171.637 156.53C171.637 156.907 171.675 157.221 171.75 157.473C171.826 157.724 171.934 157.912 172.073 158.038C172.212 158.163 172.375 158.225 172.561 158.225ZM177.202 159.084C176.791 159.083 176.436 158.981 176.14 158.78C175.844 158.579 175.617 158.288 175.457 157.906C175.299 157.525 175.221 157.066 175.223 156.53C175.223 155.995 175.302 155.54 175.46 155.163C175.619 154.786 175.847 154.5 176.142 154.304C176.439 154.106 176.792 154.007 177.202 154.007C177.613 154.007 177.965 154.106 178.261 154.304C178.557 154.502 178.786 154.789 178.945 155.165C179.105 155.54 179.184 155.995 179.182 156.53C179.182 157.068 179.102 157.527 178.943 157.909C178.785 158.29 178.558 158.582 178.263 158.783C177.968 158.984 177.614 159.084 177.202 159.084ZM177.202 158.225C177.483 158.225 177.708 158.084 177.875 157.801C178.043 157.519 178.126 157.095 178.124 156.53C178.124 156.158 178.086 155.849 178.009 155.601C177.934 155.354 177.827 155.168 177.688 155.043C177.551 154.919 177.389 154.857 177.202 154.857C176.923 154.857 176.7 154.996 176.532 155.276C176.365 155.555 176.28 155.973 176.278 156.53C176.278 156.907 176.316 157.221 176.391 157.473C176.468 157.724 176.575 157.912 176.714 158.038C176.853 158.163 177.016 158.225 177.202 158.225ZM181.073 156.394C180.856 156.394 180.658 156.341 180.479 156.236C180.302 156.129 180.161 155.987 180.055 155.809C179.95 155.631 179.897 155.433 179.897 155.216C179.897 155 179.95 154.804 180.055 154.627C180.161 154.448 180.302 154.306 180.479 154.201C180.658 154.094 180.856 154.04 181.073 154.04C181.29 154.04 181.487 154.094 181.664 154.201C181.843 154.306 181.985 154.448 182.09 154.627C182.196 154.804 182.248 155 182.248 155.216C182.248 155.433 182.196 155.631 182.09 155.809C181.985 155.987 181.843 156.129 181.664 156.236C181.487 156.341 181.29 156.394 181.073 156.394ZM181.073 155.714C181.165 155.714 181.249 155.691 181.324 155.647C181.399 155.602 181.458 155.542 181.501 155.467C181.546 155.392 181.568 155.308 181.568 155.216C181.568 155.125 181.546 155.042 181.501 154.967C181.458 154.892 181.399 154.832 181.324 154.787C181.249 154.743 181.165 154.72 181.073 154.72C180.982 154.72 180.899 154.743 180.824 154.787C180.749 154.832 180.689 154.892 180.644 154.967C180.6 155.042 180.577 155.125 180.577 155.216C180.577 155.308 180.6 155.392 180.644 155.467C180.689 155.542 180.749 155.602 180.824 155.647C180.899 155.691 180.982 155.714 181.073 155.714Z" fill="#2B85F0"/>
<path d="M139.291 212.354V217.257H138.254V213.338H138.225L137.103 214.042V213.123L138.316 212.354H139.291ZM140.382 216.395V215.579L142.428 212.354H143.132V213.484H142.716L141.425 215.526V215.564H144.334V216.395H140.382ZM142.735 217.257V216.146L142.754 215.785V212.354H143.726V217.257H142.735ZM146.815 217.324C146.477 217.324 146.175 217.262 145.91 217.137C145.647 217.013 145.438 216.841 145.283 216.622C145.128 216.404 145.048 216.153 145.041 215.871H146.047C146.058 216.061 146.138 216.215 146.286 216.333C146.435 216.451 146.611 216.51 146.815 216.51C146.978 216.51 147.122 216.474 147.246 216.402C147.372 216.329 147.47 216.227 147.541 216.098C147.612 215.967 147.648 215.817 147.648 215.648C147.648 215.476 147.612 215.324 147.538 215.193C147.466 215.062 147.367 214.96 147.239 214.887C147.111 214.813 146.965 214.776 146.801 214.774C146.657 214.774 146.518 214.804 146.382 214.863C146.248 214.922 146.143 215.003 146.068 215.105L145.147 214.94L145.379 212.354H148.376V213.202H146.234L146.107 214.43H146.135C146.222 214.308 146.352 214.208 146.526 214.128C146.7 214.048 146.894 214.008 147.11 214.008C147.405 214.008 147.668 214.078 147.9 214.217C148.131 214.355 148.314 214.546 148.448 214.789C148.582 215.03 148.648 215.307 148.647 215.622C148.648 215.952 148.572 216.246 148.417 216.503C148.264 216.758 148.049 216.959 147.773 217.106C147.498 217.251 147.179 217.324 146.815 217.324ZM150.521 214.674C150.304 214.674 150.106 214.621 149.927 214.516C149.75 214.409 149.609 214.267 149.504 214.09C149.398 213.911 149.346 213.713 149.346 213.496C149.346 213.281 149.398 213.084 149.504 212.907C149.609 212.728 149.75 212.586 149.927 212.481C150.106 212.374 150.304 212.321 150.521 212.321C150.738 212.321 150.935 212.374 151.112 212.481C151.291 212.586 151.433 212.728 151.538 212.907C151.644 213.084 151.696 213.281 151.696 213.496C151.696 213.713 151.644 213.911 151.538 214.09C151.433 214.267 151.291 214.409 151.112 214.516C150.935 214.621 150.738 214.674 150.521 214.674ZM150.521 213.994C150.614 213.994 150.697 213.972 150.772 213.927C150.847 213.882 150.906 213.822 150.95 213.747C150.994 213.672 151.017 213.589 151.017 213.496C151.017 213.405 150.994 213.322 150.95 213.247C150.906 213.172 150.847 213.112 150.772 213.067C150.697 213.023 150.614 213 150.521 213C150.43 213 150.347 213.023 150.272 213.067C150.197 213.112 150.137 213.172 150.093 213.247C150.048 213.322 150.026 213.405 150.026 213.496C150.026 213.589 150.048 213.672 150.093 213.747C150.137 213.822 150.197 213.882 150.272 213.927C150.347 213.972 150.43 213.994 150.521 213.994Z" fill="#2B85F0"/>
<path d="M161.147 232.125V237.027H160.111V233.109H160.082L158.959 233.812V232.893L160.173 232.125H161.147ZM162.312 237.027V236.28L164.057 234.665C164.206 234.521 164.33 234.392 164.431 234.277C164.533 234.162 164.61 234.049 164.663 233.939C164.716 233.827 164.742 233.707 164.742 233.578C164.742 233.434 164.709 233.31 164.644 233.207C164.579 233.101 164.489 233.021 164.376 232.965C164.263 232.907 164.134 232.879 163.99 232.879C163.84 232.879 163.71 232.909 163.598 232.97C163.486 233.03 163.4 233.117 163.339 233.231C163.279 233.344 163.248 233.479 163.248 233.635H162.264C162.264 233.314 162.337 233.036 162.482 232.8C162.628 232.563 162.831 232.381 163.093 232.251C163.354 232.122 163.656 232.058 163.998 232.058C164.349 232.058 164.654 232.12 164.914 232.244C165.176 232.367 165.38 232.538 165.525 232.757C165.67 232.975 165.743 233.226 165.743 233.508C165.743 233.693 165.706 233.876 165.633 234.056C165.561 234.237 165.432 234.437 165.247 234.657C165.062 234.876 164.801 235.139 164.464 235.445L163.749 236.146V236.18H165.807V237.027H162.312ZM168.44 237.094C168.188 237.093 167.945 237.05 167.71 236.967C167.477 236.885 167.268 236.75 167.083 236.563C166.898 236.376 166.751 236.129 166.642 235.821C166.535 235.513 166.482 235.135 166.482 234.686C166.483 234.274 166.531 233.906 166.623 233.583C166.717 233.257 166.851 232.981 167.025 232.754C167.201 232.528 167.411 232.355 167.655 232.237C167.899 232.117 168.173 232.058 168.476 232.058C168.803 232.058 169.092 232.121 169.343 232.249C169.593 232.375 169.794 232.547 169.946 232.764C170.099 232.981 170.192 233.224 170.224 233.494H169.201C169.161 233.323 169.078 233.189 168.95 233.092C168.822 232.994 168.664 232.946 168.476 232.946C168.157 232.946 167.914 233.085 167.748 233.362C167.584 233.64 167.5 234.017 167.497 234.495H167.53C167.604 234.349 167.703 234.226 167.827 234.124C167.953 234.02 168.096 233.941 168.256 233.887C168.417 233.831 168.587 233.803 168.766 233.803C169.056 233.803 169.315 233.871 169.541 234.009C169.768 234.144 169.947 234.331 170.078 234.569C170.208 234.807 170.274 235.079 170.274 235.385C170.274 235.717 170.196 236.012 170.042 236.271C169.888 236.529 169.674 236.732 169.398 236.879C169.123 237.024 168.804 237.096 168.44 237.094ZM168.435 236.28C168.595 236.28 168.738 236.242 168.864 236.166C168.99 236.089 169.089 235.985 169.161 235.854C169.233 235.723 169.268 235.577 169.268 235.414C169.268 235.251 169.233 235.105 169.161 234.976C169.09 234.846 168.993 234.744 168.869 234.667C168.744 234.59 168.602 234.552 168.443 234.552C168.323 234.552 168.212 234.574 168.11 234.619C168.009 234.664 167.921 234.726 167.844 234.806C167.769 234.886 167.71 234.978 167.667 235.083C167.624 235.187 167.602 235.298 167.602 235.416C167.602 235.574 167.638 235.719 167.71 235.85C167.783 235.98 167.882 236.085 168.007 236.163C168.133 236.241 168.276 236.28 168.435 236.28ZM172.16 234.444C171.943 234.444 171.745 234.392 171.567 234.286C171.389 234.179 171.248 234.037 171.143 233.86C171.038 233.681 170.985 233.484 170.985 233.267C170.985 233.051 171.038 232.855 171.143 232.678C171.248 232.499 171.389 232.357 171.567 232.251C171.745 232.145 171.943 232.091 172.16 232.091C172.377 232.091 172.574 232.145 172.752 232.251C172.93 232.357 173.072 232.499 173.178 232.678C173.283 232.855 173.336 233.051 173.336 233.267C173.336 233.484 173.283 233.681 173.178 233.86C173.072 234.037 172.93 234.179 172.752 234.286C172.574 234.392 172.377 234.444 172.16 234.444ZM172.16 233.764C172.253 233.764 172.337 233.742 172.412 233.697C172.487 233.653 172.546 233.593 172.589 233.518C172.633 233.443 172.656 233.359 172.656 233.267C172.656 233.176 172.633 233.093 172.589 233.018C172.546 232.943 172.487 232.883 172.412 232.838C172.337 232.793 172.253 232.771 172.16 232.771C172.069 232.771 171.986 232.793 171.911 232.838C171.836 232.883 171.776 232.943 171.732 233.018C171.687 233.093 171.665 233.176 171.665 233.267C171.665 233.359 171.687 233.443 171.732 233.518C171.776 233.593 171.836 233.653 171.911 233.697C171.986 233.742 172.069 233.764 172.16 233.764Z" fill="#2B85F0"/>
<path d="M183.737 248.544C183.368 248.544 183.04 248.484 182.753 248.364C182.468 248.243 182.243 248.078 182.08 247.869C181.918 247.659 181.836 247.422 181.836 247.158C181.836 246.953 181.883 246.766 181.975 246.595C182.069 246.423 182.197 246.28 182.358 246.166C182.519 246.052 182.7 245.978 182.899 245.946V245.913C182.637 245.86 182.425 245.733 182.262 245.532C182.1 245.329 182.018 245.094 182.018 244.826C182.018 244.572 182.092 244.346 182.241 244.148C182.389 243.949 182.593 243.792 182.851 243.679C183.111 243.564 183.407 243.507 183.737 243.507C184.067 243.507 184.362 243.564 184.62 243.679C184.881 243.794 185.085 243.951 185.233 244.151C185.382 244.349 185.457 244.574 185.458 244.826C185.457 245.096 185.374 245.331 185.209 245.532C185.045 245.733 184.834 245.86 184.577 245.913V245.946C184.774 245.978 184.952 246.052 185.111 246.166C185.272 246.28 185.4 246.423 185.494 246.595C185.59 246.766 185.639 246.953 185.64 247.158C185.639 247.422 185.556 247.659 185.394 247.869C185.231 248.078 185.006 248.243 184.719 248.364C184.433 248.484 184.106 248.544 183.737 248.544ZM183.737 247.782C183.901 247.782 184.045 247.753 184.168 247.694C184.291 247.633 184.387 247.55 184.455 247.445C184.525 247.338 184.561 247.215 184.561 247.076C184.561 246.934 184.525 246.809 184.453 246.7C184.381 246.59 184.284 246.504 184.161 246.442C184.038 246.378 183.897 246.346 183.737 246.346C183.579 246.346 183.438 246.378 183.313 246.442C183.189 246.504 183.091 246.59 183.019 246.7C182.949 246.809 182.914 246.934 182.914 247.076C182.914 247.215 182.948 247.338 183.017 247.445C183.085 247.55 183.182 247.633 183.306 247.694C183.431 247.753 183.574 247.782 183.737 247.782ZM183.737 245.592C183.874 245.592 183.996 245.564 184.103 245.508C184.21 245.452 184.294 245.375 184.355 245.276C184.415 245.177 184.446 245.063 184.446 244.934C184.446 244.806 184.415 244.694 184.355 244.598C184.294 244.501 184.211 244.425 184.106 244.371C184 244.315 183.878 244.287 183.737 244.287C183.598 244.287 183.475 244.315 183.368 244.371C183.261 244.425 183.178 244.501 183.117 244.598C183.058 244.694 183.028 244.806 183.028 244.934C183.028 245.063 183.059 245.177 183.119 245.276C183.18 245.375 183.264 245.452 183.371 245.508C183.478 245.564 183.6 245.592 183.737 245.592ZM188.287 248.584C187.876 248.583 187.521 248.481 187.224 248.28C186.929 248.079 186.702 247.788 186.542 247.406C186.384 247.025 186.306 246.566 186.308 246.03C186.308 245.495 186.387 245.04 186.545 244.663C186.704 244.286 186.932 244 187.227 243.804C187.524 243.606 187.877 243.507 188.287 243.507C188.697 243.507 189.05 243.606 189.345 243.804C189.642 244.002 189.87 244.289 190.03 244.665C190.19 245.04 190.269 245.495 190.267 246.03C190.267 246.568 190.187 247.027 190.028 247.409C189.87 247.79 189.643 248.082 189.348 248.283C189.053 248.484 188.699 248.584 188.287 248.584ZM188.287 247.725C188.568 247.725 188.792 247.584 188.96 247.301C189.128 247.019 189.211 246.595 189.209 246.03C189.209 245.658 189.171 245.349 189.094 245.101C189.019 244.854 188.912 244.668 188.773 244.543C188.636 244.419 188.474 244.357 188.287 244.357C188.008 244.357 187.785 244.496 187.617 244.776C187.449 245.055 187.365 245.473 187.363 246.03C187.363 246.407 187.401 246.721 187.476 246.973C187.552 247.224 187.66 247.412 187.799 247.538C187.938 247.663 188.101 247.725 188.287 247.725ZM192.158 245.894C191.941 245.894 191.743 245.841 191.564 245.736C191.387 245.629 191.246 245.487 191.14 245.309C191.035 245.131 190.982 244.933 190.982 244.716C190.982 244.5 191.035 244.304 191.14 244.127C191.246 243.948 191.387 243.806 191.564 243.701C191.743 243.594 191.941 243.54 192.158 243.54C192.375 243.54 192.572 243.594 192.749 243.701C192.928 243.806 193.07 243.948 193.175 244.127C193.28 244.304 193.333 244.5 193.333 244.716C193.333 244.933 193.28 245.131 193.175 245.309C193.07 245.487 192.928 245.629 192.749 245.736C192.572 245.841 192.375 245.894 192.158 245.894ZM192.158 245.214C192.25 245.214 192.334 245.191 192.409 245.147C192.484 245.102 192.543 245.042 192.586 244.967C192.631 244.892 192.653 244.808 192.653 244.716C192.653 244.625 192.631 244.542 192.586 244.467C192.543 244.392 192.484 244.332 192.409 244.287C192.334 244.243 192.25 244.22 192.158 244.22C192.067 244.22 191.984 244.243 191.909 244.287C191.834 244.332 191.774 244.392 191.729 244.467C191.684 244.542 191.662 244.625 191.662 244.716C191.662 244.808 191.684 244.892 191.729 244.967C191.774 245.042 191.834 245.102 191.909 245.147C191.984 245.191 192.067 245.214 192.158 245.214Z" fill="#2B85F0"/>
<path d="M147.617 82.2662V87.1689H146.581V83.2501H146.552L145.429 83.9539V83.0347L146.643 82.2662H147.617ZM150.915 82.2662V87.1689H149.879V83.2501H149.85L148.727 83.9539V83.0347L149.941 82.2662H150.915ZM154.003 87.2767C153.591 87.2751 153.237 87.1737 152.94 86.9726C152.645 86.7716 152.417 86.4803 152.258 86.0989C152.1 85.7174 152.022 85.2586 152.023 84.7224C152.023 84.1877 152.102 83.7321 152.26 83.3554C152.42 82.9788 152.647 82.6923 152.943 82.496C153.239 82.2981 153.593 82.1992 154.003 82.1992C154.413 82.1992 154.766 82.2981 155.061 82.496C155.358 82.6939 155.586 82.9812 155.746 83.3578C155.905 83.7329 155.984 84.1877 155.983 84.7224C155.983 85.2602 155.903 85.7198 155.743 86.1013C155.585 86.4827 155.359 86.7739 155.064 86.975C154.768 87.1761 154.415 87.2767 154.003 87.2767ZM154.003 86.4173C154.284 86.4173 154.508 86.276 154.676 85.9935C154.843 85.7111 154.926 85.2873 154.925 84.7224C154.925 84.3505 154.886 84.0409 154.81 83.7935C154.735 83.5462 154.628 83.3602 154.489 83.2357C154.352 83.1113 154.19 83.049 154.003 83.049C153.724 83.049 153.5 83.1887 153.333 83.468C153.165 83.7472 153.081 84.1654 153.079 84.7224C153.079 85.099 153.116 85.4134 153.192 85.6656C153.268 85.9161 153.376 86.1045 153.515 86.2305C153.654 86.355 153.816 86.4173 154.003 86.4173ZM157.873 84.5859C157.656 84.5859 157.458 84.5332 157.28 84.4279C157.103 84.321 156.961 84.1789 156.856 84.0018C156.751 83.8231 156.698 83.6252 156.698 83.4081C156.698 83.1927 156.751 82.9964 156.856 82.8192C156.961 82.6405 157.103 82.4984 157.28 82.3931C157.458 82.2862 157.656 82.2327 157.873 82.2327C158.09 82.2327 158.288 82.2862 158.465 82.3931C158.643 82.4984 158.785 82.6405 158.891 82.8192C158.996 82.9964 159.049 83.1927 159.049 83.4081C159.049 83.6252 158.996 83.8231 158.891 84.0018C158.785 84.1789 158.643 84.321 158.465 84.4279C158.288 84.5332 158.09 84.5859 157.873 84.5859ZM157.873 83.906C157.966 83.906 158.05 83.8837 158.125 83.839C158.2 83.7943 158.259 83.7345 158.302 83.6595C158.347 83.5845 158.369 83.5007 158.369 83.4081C158.369 83.3171 158.347 83.2341 158.302 83.1591C158.259 83.0841 158.2 83.0243 158.125 82.9796C158.05 82.9349 157.966 82.9126 157.873 82.9126C157.782 82.9126 157.699 82.9349 157.624 82.9796C157.549 83.0243 157.49 83.0841 157.445 83.1591C157.4 83.2341 157.378 83.3171 157.378 83.4081C157.378 83.5007 157.4 83.5845 157.445 83.6595C157.49 83.7345 157.549 83.7943 157.624 83.839C157.699 83.8837 157.782 83.906 157.873 83.906Z" fill="#2B85F0"/>
<path d="M135.129 115.57V120.473H134.092V116.554H134.064L132.941 117.258V116.338L134.155 115.57H135.129ZM138.427 115.57V120.473H137.391V116.554H137.362L136.239 117.258V116.338L137.453 115.57H138.427ZM141.515 120.58C141.103 120.579 140.749 120.477 140.452 120.276C140.157 120.075 139.929 119.784 139.77 119.403C139.612 119.021 139.533 118.562 139.535 118.026C139.535 117.491 139.614 117.036 139.772 116.659C139.932 116.283 140.159 115.996 140.454 115.8C140.751 115.602 141.105 115.503 141.515 115.503C141.925 115.503 142.278 115.602 142.573 115.8C142.87 115.998 143.098 116.285 143.258 116.662C143.417 117.037 143.496 117.491 143.495 118.026C143.495 118.564 143.415 119.024 143.255 119.405C143.097 119.786 142.871 120.078 142.575 120.279C142.28 120.48 141.927 120.58 141.515 120.58ZM141.515 119.721C141.796 119.721 142.02 119.58 142.187 119.297C142.355 119.015 142.438 118.591 142.436 118.026C142.436 117.654 142.398 117.345 142.322 117.097C142.247 116.85 142.14 116.664 142.001 116.539C141.863 116.415 141.701 116.353 141.515 116.353C141.235 116.353 141.012 116.492 140.844 116.772C140.677 117.051 140.592 117.469 140.591 118.026C140.591 118.403 140.628 118.717 140.703 118.969C140.78 119.22 140.888 119.408 141.026 119.534C141.165 119.659 141.328 119.721 141.515 119.721ZM145.385 117.89C145.168 117.89 144.97 117.837 144.791 117.732C144.614 117.625 144.473 117.483 144.368 117.306C144.262 117.127 144.21 116.929 144.21 116.712C144.21 116.496 144.262 116.3 144.368 116.123C144.473 115.944 144.614 115.802 144.791 115.697C144.97 115.59 145.168 115.536 145.385 115.536C145.602 115.536 145.799 115.59 145.976 115.697C146.155 115.802 146.297 115.944 146.403 116.123C146.508 116.3 146.561 116.496 146.561 116.712C146.561 116.929 146.508 117.127 146.403 117.306C146.297 117.483 146.155 117.625 145.976 117.732C145.799 117.837 145.602 117.89 145.385 117.89ZM145.385 117.21C145.478 117.21 145.561 117.187 145.636 117.143C145.711 117.098 145.771 117.038 145.814 116.963C145.858 116.888 145.881 116.804 145.881 116.712C145.881 116.621 145.858 116.538 145.814 116.463C145.771 116.388 145.711 116.328 145.636 116.283C145.561 116.239 145.478 116.216 145.385 116.216C145.294 116.216 145.211 116.239 145.136 116.283C145.061 116.328 145.001 116.388 144.957 116.463C144.912 116.538 144.89 116.621 144.89 116.712C144.89 116.804 144.912 116.888 144.957 116.963C145.001 117.038 145.061 117.098 145.136 117.143C145.211 117.187 145.294 117.21 145.385 117.21Z" fill="#2B85F0"/>
<path d="M188.206 82.2662V87.1689H187.169V83.2501H187.141L186.018 83.9539V83.0347L187.232 82.2662H188.206ZM191.504 82.2662V87.1689H190.468V83.2501H190.439L189.316 83.9539V83.0347L190.53 82.2662H191.504ZM194.592 87.2767C194.18 87.2751 193.826 87.1737 193.529 86.9726C193.234 86.7716 193.006 86.4803 192.847 86.0989C192.689 85.7174 192.61 85.2586 192.612 84.7224C192.612 84.1877 192.691 83.7321 192.849 83.3554C193.008 82.9788 193.236 82.6923 193.531 82.496C193.828 82.2981 194.182 82.1992 194.592 82.1992C195.002 82.1992 195.355 82.2981 195.65 82.496C195.947 82.6939 196.175 82.9812 196.334 83.3578C196.494 83.7329 196.573 84.1877 196.571 84.7224C196.571 85.2602 196.492 85.7198 196.332 86.1013C196.174 86.4827 195.947 86.7739 195.652 86.975C195.357 87.1761 195.003 87.2767 194.592 87.2767ZM194.592 86.4173C194.873 86.4173 195.097 86.276 195.264 85.9935C195.432 85.7111 195.515 85.2873 195.513 84.7224C195.513 84.3505 195.475 84.0409 195.398 83.7935C195.323 83.5462 195.216 83.3602 195.078 83.2357C194.94 83.1113 194.778 83.049 194.592 83.049C194.312 83.049 194.089 83.1887 193.921 83.468C193.754 83.7472 193.669 84.1654 193.668 84.7224C193.668 85.099 193.705 85.4134 193.78 85.6656C193.857 85.9161 193.964 86.1045 194.103 86.2305C194.242 86.355 194.405 86.4173 194.592 86.4173ZM198.462 84.5859C198.245 84.5859 198.047 84.5332 197.868 84.4279C197.691 84.321 197.55 84.1789 197.445 84.0018C197.339 83.8231 197.287 83.6252 197.287 83.4081C197.287 83.1927 197.339 82.9964 197.445 82.8192C197.55 82.6405 197.691 82.4984 197.868 82.3931C198.047 82.2862 198.245 82.2327 198.462 82.2327C198.679 82.2327 198.876 82.2862 199.053 82.3931C199.232 82.4984 199.374 82.6405 199.479 82.8192C199.585 82.9964 199.637 83.1927 199.637 83.4081C199.637 83.6252 199.585 83.8231 199.479 84.0018C199.374 84.1789 199.232 84.321 199.053 84.4279C198.876 84.5332 198.679 84.5859 198.462 84.5859ZM198.462 83.906C198.555 83.906 198.638 83.8837 198.713 83.839C198.788 83.7943 198.847 83.7345 198.891 83.6595C198.935 83.5845 198.958 83.5007 198.958 83.4081C198.958 83.3171 198.935 83.2341 198.891 83.1591C198.847 83.0841 198.788 83.0243 198.713 82.9796C198.638 82.9349 198.555 82.9126 198.462 82.9126C198.371 82.9126 198.288 82.9349 198.213 82.9796C198.138 83.0243 198.078 83.0841 198.034 83.1591C197.989 83.2341 197.966 83.3171 197.966 83.4081C197.966 83.5007 197.989 83.5845 198.034 83.6595C198.078 83.7345 198.138 83.7943 198.213 83.839C198.288 83.8837 198.371 83.906 198.462 83.906Z" fill="#2B85F0"/>
<path d="M200.691 114.529V119.432H199.654V115.513H199.626L198.503 116.217V115.297L199.717 114.529H200.691ZM203.989 114.529V119.432H202.953V115.513H202.924L201.801 116.217V115.297L203.015 114.529H203.989ZM207.077 119.539C206.665 119.538 206.311 119.436 206.014 119.235C205.719 119.034 205.491 118.743 205.332 118.362C205.174 117.98 205.095 117.521 205.097 116.985C205.097 116.45 205.176 115.995 205.334 115.618C205.494 115.241 205.721 114.955 206.016 114.759C206.313 114.561 206.667 114.462 207.077 114.462C207.487 114.462 207.84 114.561 208.135 114.759C208.432 114.957 208.66 115.244 208.82 115.621C208.979 115.996 209.058 116.45 209.057 116.985C209.057 117.523 208.977 117.983 208.817 118.364C208.659 118.745 208.433 119.037 208.137 119.238C207.842 119.439 207.489 119.539 207.077 119.539ZM207.077 118.68C207.358 118.68 207.582 118.539 207.749 118.256C207.917 117.974 208 117.55 207.998 116.985C207.998 116.613 207.96 116.304 207.884 116.056C207.809 115.809 207.702 115.623 207.563 115.498C207.425 115.374 207.264 115.312 207.077 115.312C206.797 115.312 206.574 115.451 206.406 115.731C206.239 116.01 206.154 116.428 206.153 116.985C206.153 117.362 206.19 117.676 206.265 117.928C206.342 118.179 206.45 118.367 206.588 118.493C206.727 118.618 206.89 118.68 207.077 118.68ZM210.947 116.849C210.73 116.849 210.532 116.796 210.353 116.691C210.176 116.584 210.035 116.442 209.93 116.264C209.824 116.086 209.772 115.888 209.772 115.671C209.772 115.455 209.824 115.259 209.93 115.082C210.035 114.903 210.176 114.761 210.353 114.656C210.532 114.549 210.73 114.495 210.947 114.495C211.164 114.495 211.361 114.549 211.538 114.656C211.717 114.761 211.859 114.903 211.965 115.082C212.07 115.259 212.123 115.455 212.123 115.671C212.123 115.888 212.07 116.086 211.965 116.264C211.859 116.442 211.717 116.584 211.538 116.691C211.361 116.796 211.164 116.849 210.947 116.849ZM210.947 116.169C211.04 116.169 211.123 116.146 211.198 116.102C211.274 116.057 211.333 115.997 211.376 115.922C211.42 115.847 211.443 115.763 211.443 115.671C211.443 115.58 211.42 115.497 211.376 115.422C211.333 115.347 211.274 115.287 211.198 115.242C211.123 115.198 211.04 115.175 210.947 115.175C210.856 115.175 210.773 115.198 210.698 115.242C210.623 115.287 210.563 115.347 210.519 115.422C210.474 115.497 210.452 115.58 210.452 115.671C210.452 115.763 210.474 115.847 210.519 115.922C210.563 115.997 210.623 116.057 210.698 116.102C210.773 116.146 210.856 116.169 210.947 116.169Z" fill="#2B85F0"/>
<path d="M167.388 135.342V140.245H166.351V136.326H166.322L165.2 137.03V136.111L166.413 135.342H167.388ZM170.686 135.342V140.245H169.649V136.326H169.62L168.498 137.03V136.111L169.711 135.342H170.686ZM173.773 140.353C173.362 140.351 173.007 140.25 172.71 140.049C172.415 139.848 172.188 139.556 172.028 139.175C171.87 138.794 171.792 138.335 171.794 137.799C171.794 137.264 171.873 136.808 172.031 136.432C172.19 136.055 172.418 135.768 172.713 135.572C173.01 135.374 173.363 135.275 173.773 135.275C174.183 135.275 174.536 135.374 174.831 135.572C175.128 135.77 175.356 136.057 175.516 136.434C175.676 136.809 175.755 137.264 175.753 137.799C175.753 138.336 175.673 138.796 175.514 139.177C175.356 139.559 175.129 139.85 174.834 140.051C174.539 140.252 174.185 140.353 173.773 140.353ZM173.773 139.493C174.054 139.493 174.278 139.352 174.446 139.07C174.614 138.787 174.697 138.364 174.695 137.799C174.695 137.427 174.657 137.117 174.58 136.87C174.505 136.622 174.398 136.436 174.259 136.312C174.122 136.187 173.96 136.125 173.773 136.125C173.494 136.125 173.271 136.265 173.103 136.544C172.935 136.823 172.851 137.242 172.849 137.799C172.849 138.175 172.887 138.49 172.962 138.742C173.038 138.992 173.146 139.181 173.285 139.307C173.424 139.431 173.587 139.493 173.773 139.493ZM177.644 137.662C177.427 137.662 177.229 137.609 177.05 137.504C176.873 137.397 176.732 137.255 176.626 137.078C176.521 136.899 176.468 136.701 176.468 136.484C176.468 136.269 176.521 136.073 176.626 135.895C176.732 135.717 176.873 135.575 177.05 135.469C177.229 135.362 177.427 135.309 177.644 135.309C177.861 135.309 178.058 135.362 178.235 135.469C178.414 135.575 178.556 135.717 178.661 135.895C178.766 136.073 178.819 136.269 178.819 136.484C178.819 136.701 178.766 136.899 178.661 137.078C178.556 137.255 178.414 137.397 178.235 137.504C178.058 137.609 177.861 137.662 177.644 137.662ZM177.644 136.982C177.736 136.982 177.82 136.96 177.895 136.915C177.97 136.87 178.029 136.811 178.072 136.736C178.117 136.661 178.139 136.577 178.139 136.484C178.139 136.393 178.117 136.31 178.072 136.235C178.029 136.16 177.97 136.1 177.895 136.056C177.82 136.011 177.736 135.989 177.644 135.989C177.553 135.989 177.47 136.011 177.395 136.056C177.32 136.1 177.26 136.16 177.215 136.235C177.17 136.31 177.148 136.393 177.148 136.484C177.148 136.577 177.17 136.661 177.215 136.736C177.26 136.811 177.32 136.87 177.395 136.915C177.47 136.96 177.553 136.982 177.644 136.982Z" fill="#2B85F0"/>
<mask id="path-31-inside-1_2303_8421" fill="white">
<path d="M71.6664 238.324C72.7567 240.101 73.3157 242.154 73.2774 244.238L71.7222 244.21C71.7551 242.422 71.2756 240.662 70.3405 239.137L71.6664 238.324Z"/>
</mask>
<path d="M71.6664 238.324C72.7567 240.101 73.3157 242.154 73.2774 244.238L71.7222 244.21C71.7551 242.422 71.2756 240.662 70.3405 239.137L71.6664 238.324Z" fill="#2B85F0" stroke="#2B85F0" stroke-width="2.24709" mask="url(#path-31-inside-1_2303_8421)"/>
<mask id="path-32-inside-2_2303_8421" fill="white">
<path d="M158.149 238.324C157.058 240.101 156.499 242.154 156.538 244.238L158.153 244.209C158.12 242.432 158.597 240.683 159.526 239.169L158.149 238.324Z"/>
</mask>
<path d="M158.149 238.324C157.058 240.101 156.499 242.154 156.538 244.238L158.153 244.209C158.12 242.432 158.597 240.683 159.526 239.169L158.149 238.324Z" fill="#2B85F0" stroke="#2B85F0" stroke-width="2.24709" mask="url(#path-32-inside-2_2303_8421)"/>
<mask id="path-33-inside-3_2303_8421" fill="white">
<path d="M84.4718 229.3C83.7925 228.007 83.5119 226.541 83.6656 225.088C83.8193 223.636 84.4003 222.261 85.3352 221.138C86.27 220.016 87.5167 219.196 88.9177 218.782C90.3186 218.368 91.8109 218.379 93.2057 218.813L92.8305 220.018C91.6741 219.658 90.4369 219.649 89.2754 219.993C88.114 220.336 87.0803 221.016 86.3053 221.946C85.5302 222.877 85.0485 224.017 84.9211 225.221C84.7937 226.425 85.0263 227.641 85.5895 228.713L84.4718 229.3Z"/>
</mask>
<path d="M84.4718 229.3C83.7925 228.007 83.5119 226.541 83.6656 225.088C83.8193 223.636 84.4003 222.261 85.3352 221.138C86.27 220.016 87.5167 219.196 88.9177 218.782C90.3186 218.368 91.8109 218.379 93.2057 218.813L92.8305 220.018C91.6741 219.658 90.4369 219.649 89.2754 219.993C88.114 220.336 87.0803 221.016 86.3053 221.946C85.5302 222.877 85.0485 224.017 84.9211 225.221C84.7937 226.425 85.0263 227.641 85.5895 228.713L84.4718 229.3Z" fill="#2B85F0" stroke="#2B85F0" stroke-width="2.24709" mask="url(#path-33-inside-3_2303_8421)"/>
<mask id="path-34-inside-4_2303_8421" fill="white">
<path d="M120.626 172.901C119.916 173.663 119.053 174.266 118.094 174.671C117.134 175.076 116.1 175.273 115.059 175.25C114.018 175.227 112.994 174.984 112.053 174.537C111.113 174.091 110.277 173.45 109.602 172.658L110.562 171.839C111.123 172.495 111.815 173.027 112.595 173.397C113.375 173.767 114.224 173.969 115.087 173.988C115.95 174.007 116.808 173.843 117.603 173.508C118.398 173.172 119.114 172.672 119.702 172.041L120.626 172.901Z"/>
</mask>
<path d="M120.626 172.901C119.916 173.663 119.053 174.266 118.094 174.671C117.134 175.076 116.1 175.273 115.059 175.25C114.018 175.227 112.994 174.984 112.053 174.537C111.113 174.091 110.277 173.45 109.602 172.658L110.562 171.839C111.123 172.495 111.815 173.027 112.595 173.397C113.375 173.767 114.224 173.969 115.087 173.988C115.95 174.007 116.808 173.843 117.603 173.508C118.398 173.172 119.114 172.672 119.702 172.041L120.626 172.901Z" fill="#2B85F0" stroke="#2B85F0" stroke-width="2.24709" mask="url(#path-34-inside-4_2303_8421)"/>
<mask id="path-35-inside-5_2303_8421" fill="white">
<path d="M172.344 148.447C172.297 149.114 172.119 149.766 171.821 150.366C171.522 150.965 171.109 151.499 170.604 151.939C170.099 152.378 169.512 152.713 168.877 152.926C168.242 153.139 167.572 153.224 166.904 153.178L166.965 152.308C167.518 152.347 168.074 152.276 168.6 152.1C169.127 151.924 169.613 151.645 170.032 151.281C170.451 150.917 170.794 150.474 171.041 149.977C171.289 149.48 171.436 148.94 171.474 148.386L172.344 148.447Z"/>
</mask>
<path d="M172.344 148.447C172.297 149.114 172.119 149.766 171.821 150.366C171.522 150.965 171.109 151.499 170.604 151.939C170.099 152.378 169.512 152.713 168.877 152.926C168.242 153.139 167.572 153.224 166.904 153.178L166.965 152.308C167.518 152.347 168.074 152.276 168.6 152.1C169.127 151.924 169.613 151.645 170.032 151.281C170.451 150.917 170.794 150.474 171.041 149.977C171.289 149.48 171.436 148.94 171.474 148.386L172.344 148.447Z" fill="#2B85F0" stroke="#2B85F0" stroke-width="2.24709" mask="url(#path-35-inside-5_2303_8421)"/>
<mask id="path-36-inside-6_2303_8421" fill="white">
<path d="M173.027 148.447C173.073 149.114 173.251 149.766 173.549 150.366C173.848 150.965 174.262 151.499 174.767 151.939C175.272 152.378 175.859 152.713 176.493 152.926C177.128 153.139 177.799 153.224 178.466 153.178L178.406 152.308C177.852 152.347 177.296 152.276 176.77 152.1C176.244 151.924 175.757 151.645 175.339 151.281C174.92 150.917 174.577 150.474 174.329 149.977C174.082 149.48 173.935 148.94 173.896 148.386L173.027 148.447Z"/>
</mask>
<path d="M173.027 148.447C173.073 149.114 173.251 149.766 173.549 150.366C173.848 150.965 174.262 151.499 174.767 151.939C175.272 152.378 175.859 152.713 176.493 152.926C177.128 153.139 177.799 153.224 178.466 153.178L178.406 152.308C177.852 152.347 177.296 152.276 176.77 152.1C176.244 151.924 175.757 151.645 175.339 151.281C174.92 150.917 174.577 150.474 174.329 149.977C174.082 149.48 173.935 148.94 173.896 148.386L173.027 148.447Z" fill="#2B85F0" stroke="#2B85F0" stroke-width="2.24709" mask="url(#path-36-inside-6_2303_8421)"/>
<mask id="path-37-inside-7_2303_8421" fill="white">
<path d="M145.421 229.3C146.1 228.007 146.38 226.541 146.227 225.088C146.073 223.636 145.492 222.261 144.557 221.138C143.622 220.016 142.376 219.196 140.975 218.782C139.574 218.368 138.081 218.379 136.687 218.813L137.062 220.018C138.218 219.658 139.455 219.649 140.617 219.992C141.778 220.336 142.812 221.016 143.587 221.946C144.362 222.877 144.844 224.017 144.971 225.221C145.099 226.425 144.866 227.641 144.303 228.713L145.421 229.3Z"/>
</mask>
<path d="M145.421 229.3C146.1 228.007 146.38 226.541 146.227 225.088C146.073 223.636 145.492 222.261 144.557 221.138C143.622 220.016 142.376 219.196 140.975 218.782C139.574 218.368 138.081 218.379 136.687 218.813L137.062 220.018C138.218 219.658 139.455 219.649 140.617 219.992C141.778 220.336 142.812 221.016 143.587 221.946C144.362 222.877 144.844 224.017 144.971 225.221C145.099 226.425 144.866 227.641 144.303 228.713L145.421 229.3Z" fill="#2B85F0" stroke="#2B85F0" stroke-width="2.24709" mask="url(#path-37-inside-7_2303_8421)"/>
<mask id="path-38-inside-8_2303_8421" fill="white">
<path d="M177.259 246.774C175.903 246.752 174.58 246.357 173.434 245.633C172.288 244.909 171.363 243.883 170.761 242.669C170.159 241.454 169.902 240.097 170.02 238.746C170.138 237.396 170.626 236.103 171.429 235.011L172.446 235.759C171.78 236.665 171.376 237.736 171.278 238.856C171.18 239.976 171.392 241.101 171.892 242.108C172.391 243.115 173.158 243.966 174.108 244.566C175.058 245.166 176.156 245.494 177.279 245.512L177.259 246.774Z"/>
</mask>
<path d="M177.259 246.774C175.903 246.752 174.58 246.357 173.434 245.633C172.288 244.909 171.363 243.883 170.761 242.669C170.159 241.454 169.902 240.097 170.02 238.746C170.138 237.396 170.626 236.103 171.429 235.011L172.446 235.759C171.78 236.665 171.376 237.736 171.278 238.856C171.18 239.976 171.392 241.101 171.892 242.108C172.391 243.115 173.158 243.966 174.108 244.566C175.058 245.166 176.156 245.494 177.279 245.512L177.259 246.774Z" fill="#2B85F0" stroke="#2B85F0" stroke-width="2.24709" mask="url(#path-38-inside-8_2303_8421)"/>
<mask id="path-39-inside-9_2303_8421" fill="white">
<path d="M188.861 253.922C188.9 252.186 189.549 250.52 190.694 249.215C191.839 247.91 193.407 247.051 195.123 246.787L195.315 248.034C193.892 248.253 192.592 248.966 191.643 250.048C190.693 251.129 190.155 252.511 190.123 253.95L188.861 253.922Z"/>
</mask>
<path d="M188.861 253.922C188.9 252.186 189.549 250.52 190.694 249.215C191.839 247.91 193.407 247.051 195.123 246.787L195.315 248.034C193.892 248.253 192.592 248.966 191.643 250.048C190.693 251.129 190.155 252.511 190.123 253.95L188.861 253.922Z" fill="#2B85F0" stroke="#2B85F0" stroke-width="2.24709" mask="url(#path-39-inside-9_2303_8421)"/>
<mask id="path-40-inside-10_2303_8421" fill="white">
<path d="M155.564 96.2468C155.505 94.9876 155.769 93.7343 156.332 92.6062C156.894 91.4781 157.736 90.5128 158.778 89.8021C159.819 89.0914 161.024 88.659 162.28 88.5461C163.535 88.4331 164.799 88.6434 165.95 89.1568L165.436 90.3097C164.482 89.8839 163.434 89.7096 162.393 89.8032C161.352 89.8969 160.352 90.2554 159.489 90.8446C158.626 91.4339 157.928 92.2342 157.462 93.1695C156.995 94.1048 156.776 95.144 156.825 96.188L155.564 96.2468Z"/>
</mask>
<path d="M155.564 96.2468C155.505 94.9876 155.769 93.7343 156.332 92.6062C156.894 91.4781 157.736 90.5128 158.778 89.8021C159.819 89.0914 161.024 88.659 162.28 88.5461C163.535 88.4331 164.799 88.6434 165.95 89.1568L165.436 90.3097C164.482 89.8839 163.434 89.7096 162.393 89.8032C161.352 89.8969 160.352 90.2554 159.489 90.8446C158.626 91.4339 157.928 92.2342 157.462 93.1695C156.995 94.1048 156.776 95.144 156.825 96.188L155.564 96.2468Z" fill="#2B85F0" stroke="#2B85F0" stroke-width="2.24709" mask="url(#path-40-inside-10_2303_8421)"/>
<mask id="path-41-inside-11_2303_8421" fill="white">
<path d="M156.815 120.055C155.694 119.648 154.688 118.976 153.884 118.095C153.079 117.215 152.5 116.153 152.195 115C151.89 113.847 151.869 112.637 152.134 111.474C152.398 110.311 152.94 109.23 153.714 108.322L154.675 109.141C154.033 109.893 153.584 110.79 153.364 111.754C153.145 112.718 153.162 113.721 153.415 114.677C153.668 115.633 154.148 116.514 154.815 117.244C155.482 117.974 156.316 118.531 157.246 118.869L156.815 120.055Z"/>
</mask>
<path d="M156.815 120.055C155.694 119.648 154.688 118.976 153.884 118.095C153.079 117.215 152.5 116.153 152.195 115C151.89 113.847 151.869 112.637 152.134 111.474C152.398 110.311 152.94 109.23 153.714 108.322L154.675 109.141C154.033 109.893 153.584 110.79 153.364 111.754C153.145 112.718 153.162 113.721 153.415 114.677C153.668 115.633 154.148 116.514 154.815 117.244C155.482 117.974 156.316 118.531 157.246 118.869L156.815 120.055Z" fill="#2B85F0" stroke="#2B85F0" stroke-width="2.24709" mask="url(#path-41-inside-11_2303_8421)"/>
<mask id="path-42-inside-12_2303_8421" fill="white">
<path d="M178.545 126.751C177.923 127.768 177.064 128.62 176.041 129.233C175.018 129.847 173.862 130.203 172.672 130.272C171.481 130.342 170.291 130.121 169.204 129.631C168.117 129.14 167.165 128.393 166.43 127.455L167.423 126.676C168.033 127.454 168.822 128.073 169.724 128.48C170.625 128.887 171.611 129.07 172.598 129.012C173.585 128.955 174.544 128.659 175.392 128.151C176.24 127.642 176.953 126.936 177.468 126.093L178.545 126.751Z"/>
</mask>
<path d="M178.545 126.751C177.923 127.768 177.064 128.62 176.041 129.233C175.018 129.847 173.862 130.203 172.672 130.272C171.481 130.342 170.291 130.121 169.204 129.631C168.117 129.14 167.165 128.393 166.43 127.455L167.423 126.676C168.033 127.454 168.822 128.073 169.724 128.48C170.625 128.887 171.611 129.07 172.598 129.012C173.585 128.955 174.544 128.659 175.392 128.151C176.24 127.642 176.953 126.936 177.468 126.093L178.545 126.751Z" fill="#2B85F0" stroke="#2B85F0" stroke-width="2.24709" mask="url(#path-42-inside-12_2303_8421)"/>
<mask id="path-43-inside-13_2303_8421" fill="white">
<path d="M188.915 120.055C190.036 119.648 191.042 118.976 191.846 118.095C192.651 117.215 193.23 116.153 193.535 115C193.84 113.847 193.861 112.637 193.596 111.474C193.332 110.311 192.789 109.23 192.016 108.322L191.055 109.141C191.696 109.893 192.146 110.79 192.365 111.754C192.585 112.718 192.567 113.721 192.315 114.677C192.062 115.633 191.582 116.514 190.914 117.244C190.247 117.974 189.413 118.531 188.484 118.869L188.915 120.055Z"/>
</mask>
<path d="M188.915 120.055C190.036 119.648 191.042 118.976 191.846 118.095C192.651 117.215 193.23 116.153 193.535 115C193.84 113.847 193.861 112.637 193.596 111.474C193.332 110.311 192.789 109.23 192.016 108.322L191.055 109.141C191.696 109.893 192.146 110.79 192.365 111.754C192.585 112.718 192.567 113.721 192.315 114.677C192.062 115.633 191.582 116.514 190.914 117.244C190.247 117.974 189.413 118.531 188.484 118.869L188.915 120.055Z" fill="#2B85F0" stroke="#2B85F0" stroke-width="2.24709" mask="url(#path-43-inside-13_2303_8421)"/>
<mask id="path-44-inside-14_2303_8421" fill="white">
<path d="M189.051 96.2468C189.109 94.9876 188.845 93.7343 188.282 92.6062C187.72 91.4781 186.878 90.5128 185.837 89.8021C184.796 89.0914 183.59 88.659 182.334 88.5461C181.079 88.4331 179.815 88.6434 178.664 89.1568L179.178 90.3097C180.133 89.8839 181.18 89.7096 182.221 89.8032C183.262 89.8969 184.262 90.2554 185.125 90.8446C185.988 91.4339 186.686 92.2342 187.153 93.1695C187.619 94.1048 187.838 95.144 187.79 96.188L189.051 96.2468Z"/>
</mask>
<path d="M189.051 96.2468C189.109 94.9876 188.845 93.7343 188.282 92.6062C187.72 91.4781 186.878 90.5128 185.837 89.8021C184.796 89.0914 183.59 88.659 182.334 88.5461C181.079 88.4331 179.815 88.6434 178.664 89.1568L179.178 90.3097C180.133 89.8839 181.18 89.7096 182.221 89.8032C183.262 89.8969 184.262 90.2554 185.125 90.8446C185.988 91.4339 186.686 92.2342 187.153 93.1695C187.619 94.1048 187.838 95.144 187.79 96.188L189.051 96.2468Z" fill="#2B85F0" stroke="#2B85F0" stroke-width="2.24709" mask="url(#path-44-inside-14_2303_8421)"/>
</svg>
